<svg width="162" height="70" viewBox="0 0 162 70" fill="none" xmlns="http://www.w3.org/2000/svg">
<g clip-path="url(#clip0_290_365)">
<path fill-rule="evenodd" clip-rule="evenodd" d="M47.9675 18.3526L46.8953 18.3477H25.3116L2.64087 27.4547L0 32.8568L7.69426 32.8716V27.3955L9.80895 24.0309L12.0229 27.3018H15.9743L17.7167 24.0112L19.8711 27.356H23.4253L25.3116 23.9865L27.2774 27.356H30.375L32.2762 24.0112L34.4951 27.3758H37.821L39.6627 23.9668L41.7774 27.356H44.9792L46.8804 23.9668L48.9752 27.4004H49.2234V23.4488H48.2008L47.0045 18.8953L47.9675 18.3526Z" stroke="white" stroke-width="0.35" stroke-miterlimit="22.93"/>
<path fill-rule="evenodd" clip-rule="evenodd" d="M9.84376 25.5488L8.17584 28.0649V31.612H11.5564V28.0649L9.84376 25.5488Z" stroke="white" stroke-width="0.35" stroke-miterlimit="22.93"/>
<path fill-rule="evenodd" clip-rule="evenodd" d="M17.8457 25.5469L16.1778 28.0629V31.6051H19.5583V28.0629L17.8457 25.5469Z" stroke="white" stroke-width="0.35" stroke-miterlimit="22.93"/>
<path fill-rule="evenodd" clip-rule="evenodd" d="M25.3217 25.5488L23.6488 28.0599V31.607H27.0343V28.0599L25.3217 25.5488Z" stroke="white" stroke-width="0.35" stroke-miterlimit="22.93"/>
<path fill-rule="evenodd" clip-rule="evenodd" d="M32.3557 25.5488L30.6828 28.0599V31.607H34.0683V28.0599L32.3557 25.5488Z" stroke="white" stroke-width="0.35" stroke-miterlimit="22.93"/>
<path fill-rule="evenodd" clip-rule="evenodd" d="M39.7669 25.5312L38.0941 28.0473V31.5895H41.4795V28.0473L39.7669 25.5312Z" stroke="white" stroke-width="0.35" stroke-miterlimit="22.93"/>
<path fill-rule="evenodd" clip-rule="evenodd" d="M46.9102 25.5352L45.2373 28.0463V31.5934H48.6228V28.0463L46.9102 25.5352Z" stroke="white" stroke-width="0.35" stroke-miterlimit="22.93"/>
<path d="M9.71365 28.4961H8.57776V31.1947H9.71365V28.4961Z" stroke="white" stroke-width="0.35" stroke-miterlimit="22.93"/>
<path d="M15.9196 27.4238H12.0625V32.8308H15.9196V27.4238Z" stroke="white" stroke-width="0.35" stroke-miterlimit="22.93"/>
<path d="M23.4402 27.4199H19.876V32.8269H23.4402V27.4199Z" stroke="white" stroke-width="0.35" stroke-miterlimit="22.93"/>
<path d="M30.3649 27.4336H27.2872V32.8406H30.3649V27.4336Z" stroke="white" stroke-width="0.35" stroke-miterlimit="22.93"/>
<path d="M37.8012 27.4396H34.4554V32.8466H37.8012V27.4396Z" stroke="white" stroke-width="0.35" stroke-miterlimit="22.93"/>
<path d="M44.9891 27.4297H41.7873V32.8367H44.9891V27.4297Z" stroke="white" stroke-width="0.35" stroke-miterlimit="22.93"/>
<path d="M17.7109 28.5059H16.575V31.2044H17.7109V28.5059Z" stroke="white" stroke-width="0.35" stroke-miterlimit="22.93"/>
<path d="M25.1867 28.4904H24.0508V31.1889H25.1867V28.4904Z" stroke="white" stroke-width="0.35" stroke-miterlimit="22.93"/>
<path d="M32.2256 28.5H31.0897V31.1986H32.2256V28.5Z" stroke="white" stroke-width="0.35" stroke-miterlimit="22.93"/>
<path d="M46.8208 37.9141H45.4309V42.3936H46.8208V37.9141Z" stroke="white" stroke-width="0.35" stroke-miterlimit="22.93"/>
<path d="M46.9051 59.873H45.5152V64.3526H46.9051V59.873Z" stroke="white" stroke-width="0.35" stroke-miterlimit="22.93"/>
<path d="M46.7364 49.4727H45.3464V53.9522H46.7364V49.4727Z" stroke="white" stroke-width="0.35" stroke-miterlimit="22.93"/>
<path d="M39.7273 37.8633H38.3374V42.3428H39.7273V37.8633Z" stroke="white" stroke-width="0.35" stroke-miterlimit="22.93"/>
<path d="M39.8166 59.8223H38.4266V64.3018H39.8166V59.8223Z" stroke="white" stroke-width="0.35" stroke-miterlimit="22.93"/>
<path d="M39.757 49.418H38.3671V53.8975H39.757V49.418Z" stroke="white" stroke-width="0.35" stroke-miterlimit="22.93"/>
<path d="M32.3358 37.8828H30.9459V42.3623H32.3358V37.8828Z" stroke="white" stroke-width="0.35" stroke-miterlimit="22.93"/>
<path d="M32.425 59.8418H31.0351V64.3213H32.425V59.8418Z" stroke="white" stroke-width="0.35" stroke-miterlimit="22.93"/>
<path d="M32.3705 49.4434H30.9806V53.9229H32.3705V49.4434Z" stroke="white" stroke-width="0.35" stroke-miterlimit="22.93"/>
<path d="M25.0983 37.8789H23.7084V42.3584H25.0983V37.8789Z" stroke="white" stroke-width="0.35" stroke-miterlimit="22.93"/>
<path d="M25.1875 59.832H23.7975V64.3116H25.1875V59.832Z" stroke="white" stroke-width="0.35" stroke-miterlimit="22.93"/>
<path d="M25.1279 49.4316H23.738V53.9112H25.1279V49.4316Z" stroke="white" stroke-width="0.35" stroke-miterlimit="22.93"/>
<path d="M17.7117 37.8789H16.3218V42.3584H17.7117V37.8789Z" stroke="white" stroke-width="0.35" stroke-miterlimit="22.93"/>
<path d="M68.3995 24.4141H67.0096V28.8936H68.3995V24.4141Z" stroke="white" stroke-width="0.35" stroke-miterlimit="22.93"/>
<path d="M101.649 24.4845H100.259V28.964H101.649V24.4845Z" stroke="white" stroke-width="0.35" stroke-miterlimit="22.93"/>
<path d="M80.5912 24.3555H79.2013V28.835H80.5912V24.3555Z" stroke="white" stroke-width="0.35" stroke-miterlimit="22.93"/>
<path d="M80.7948 35.9199H79.4048V40.3994H80.7948V35.9199Z" stroke="white" stroke-width="0.35" stroke-miterlimit="22.93"/>
<path d="M68.3896 35.9141H66.9996V40.3936H68.3896V35.9141Z" stroke="white" stroke-width="0.35" stroke-miterlimit="22.93"/>
<path d="M101.644 35.9843H100.254V40.4638H101.644V35.9843Z" stroke="white" stroke-width="0.35" stroke-miterlimit="22.93"/>
<path d="M17.8011 59.832H16.4112V64.3116H17.8011V59.832Z" stroke="white" stroke-width="0.35" stroke-miterlimit="22.93"/>
<path d="M17.7414 49.4316H16.3515V53.9112H17.7414V49.4316Z" stroke="white" stroke-width="0.35" stroke-miterlimit="22.93"/>
<path d="M68.4988 48.6523H67.1089V53.1319H68.4988V48.6523Z" stroke="white" stroke-width="0.35" stroke-miterlimit="22.93"/>
<path d="M101.748 48.7207H100.358V53.2002H101.748V48.7207Z" stroke="white" stroke-width="0.35" stroke-miterlimit="22.93"/>
<path d="M68.4938 59.5508H67.1039V64.0303H68.4938V59.5508Z" stroke="white" stroke-width="0.35" stroke-miterlimit="22.93"/>
<path d="M80.7997 60.5723H77.9999V68.52H80.7997V60.5723Z" stroke="white" stroke-width="0.35" stroke-miterlimit="22.93"/>
<path d="M83.7931 60.5762H80.9933V68.5239H83.7931V60.5762Z" stroke="white" stroke-width="0.35" stroke-miterlimit="22.93"/>
<path d="M101.743 59.6191H100.353V64.0987H101.743V59.6191Z" stroke="white" stroke-width="0.35" stroke-miterlimit="22.93"/>
<path d="M9.82395 37.9082H8.43402V42.3877H9.82395V37.9082Z" stroke="white" stroke-width="0.35" stroke-miterlimit="22.93"/>
<path d="M59.355 24.3965H57.9651V28.876H59.355V24.3965Z" stroke="white" stroke-width="0.35" stroke-miterlimit="22.93"/>
<path d="M92.6041 24.4648H91.2142V28.9444H92.6041V24.4648Z" stroke="white" stroke-width="0.35" stroke-miterlimit="22.93"/>
<path d="M59.3899 35.8672H57.9999V40.3467H59.3899V35.8672Z" stroke="white" stroke-width="0.35" stroke-miterlimit="22.93"/>
<path d="M92.6389 35.9355H91.249V40.4151H92.6389V35.9355Z" stroke="white" stroke-width="0.35" stroke-miterlimit="22.93"/>
<path d="M9.91312 59.8672H8.52319V64.3467H9.91312V59.8672Z" stroke="white" stroke-width="0.35" stroke-miterlimit="22.93"/>
<path d="M9.8585 49.4668H8.46857V53.9463H9.8585V49.4668Z" stroke="white" stroke-width="0.35" stroke-miterlimit="22.93"/>
<path d="M59.4741 48.6348H58.0842V53.1143H59.4741V48.6348Z" stroke="white" stroke-width="0.35" stroke-miterlimit="22.93"/>
<path d="M92.7233 48.7031H91.3334V53.1827H92.7233V48.7031Z" stroke="white" stroke-width="0.35" stroke-miterlimit="22.93"/>
<path d="M59.4344 59.6055H58.0444V64.085H59.4344V59.6055Z" stroke="white" stroke-width="0.35" stroke-miterlimit="22.93"/>
<path d="M92.6886 59.6699H91.2987V64.1494H92.6886V59.6699Z" stroke="white" stroke-width="0.35" stroke-miterlimit="22.93"/>
<path d="M80.8195 48.6289H79.4296V53.1084H80.8195V48.6289Z" stroke="white" stroke-width="0.35" stroke-miterlimit="22.93"/>
<path d="M39.6421 28.5098H38.5062V31.2083H39.6421V28.5098Z" stroke="white" stroke-width="0.35" stroke-miterlimit="22.93"/>
<path d="M46.7803 28.4668H45.6444V31.1654H46.7803V28.4668Z" stroke="white" stroke-width="0.35" stroke-miterlimit="22.93"/>
<path d="M11.3022 28.3223H10.0323V31.2971H11.3022V28.3223Z" stroke="white" stroke-width="0.35" stroke-miterlimit="22.93"/>
<path d="M19.2992 28.334H18.0294V31.3088H19.2992V28.334Z" stroke="white" stroke-width="0.35" stroke-miterlimit="22.93"/>
<path d="M26.775 28.3184H25.5052V31.2932H26.775V28.3184Z" stroke="white" stroke-width="0.35" stroke-miterlimit="22.93"/>
<path d="M33.8141 28.3281H32.5443V31.303H33.8141V28.3281Z" stroke="white" stroke-width="0.35" stroke-miterlimit="22.93"/>
<path d="M48.7718 37.7598H47.2131V42.5008H48.7718V37.7598Z" stroke="white" stroke-width="0.35" stroke-miterlimit="22.93"/>
<path d="M48.8561 59.7188H47.2974V64.4597H48.8561V59.7188Z" stroke="white" stroke-width="0.35" stroke-miterlimit="22.93"/>
<path d="M48.6923 49.3203H47.1336V54.0613H48.6923V49.3203Z" stroke="white" stroke-width="0.35" stroke-miterlimit="22.93"/>
<path d="M41.678 37.7109H40.1193V42.4519H41.678V37.7109Z" stroke="white" stroke-width="0.35" stroke-miterlimit="22.93"/>
<path d="M41.7674 59.6699H40.2087V64.4109H41.7674V59.6699Z" stroke="white" stroke-width="0.35" stroke-miterlimit="22.93"/>
<path d="M41.7079 49.2656H40.1492V54.0066H41.7079V49.2656Z" stroke="white" stroke-width="0.35" stroke-miterlimit="22.93"/>
<path d="M34.2915 37.7305H32.7328V42.4715H34.2915V37.7305Z" stroke="white" stroke-width="0.35" stroke-miterlimit="22.93"/>
<path d="M34.376 59.6895H32.8173V64.4304H34.376V59.6895Z" stroke="white" stroke-width="0.35" stroke-miterlimit="22.93"/>
<path d="M34.3213 49.2891H32.7626V54.0301H34.3213V49.2891Z" stroke="white" stroke-width="0.35" stroke-miterlimit="22.93"/>
<path d="M27.0491 37.7266H25.4904V42.4676H27.0491V37.7266Z" stroke="white" stroke-width="0.35" stroke-miterlimit="22.93"/>
<path d="M27.1384 59.6797H25.5797V64.4207H27.1384V59.6797Z" stroke="white" stroke-width="0.35" stroke-miterlimit="22.93"/>
<path d="M27.0789 49.2812H25.5201V54.0222H27.0789V49.2812Z" stroke="white" stroke-width="0.35" stroke-miterlimit="22.93"/>
<path d="M19.6626 37.7266H18.1039V42.4676H19.6626V37.7266Z" stroke="white" stroke-width="0.35" stroke-miterlimit="22.93"/>
<path d="M70.3504 24.2617H68.7917V29.0027H70.3504V24.2617Z" stroke="white" stroke-width="0.35" stroke-miterlimit="22.93"/>
<path d="M103.6 24.3301H102.041V29.0711H103.6V24.3301Z" stroke="white" stroke-width="0.35" stroke-miterlimit="22.93"/>
<path d="M82.542 24.2031H80.9833V28.9441H82.542V24.2031Z" stroke="white" stroke-width="0.35" stroke-miterlimit="22.93"/>
<path d="M82.7456 35.7676H81.1869V40.5086H82.7456V35.7676Z" stroke="white" stroke-width="0.35" stroke-miterlimit="22.93"/>
<path d="M70.3455 35.7617H68.7867V40.5027H70.3455V35.7617Z" stroke="white" stroke-width="0.35" stroke-miterlimit="22.93"/>
<path d="M103.595 35.8301H102.036V40.5711H103.595V35.8301Z" stroke="white" stroke-width="0.35" stroke-miterlimit="22.93"/>
<path d="M19.7519 59.6797H18.1932V64.4207H19.7519V59.6797Z" stroke="white" stroke-width="0.35" stroke-miterlimit="22.93"/>
<path d="M19.6923 49.2812H18.1336V54.0222H19.6923V49.2812Z" stroke="white" stroke-width="0.35" stroke-miterlimit="22.93"/>
<path d="M70.4497 48.5H68.891V53.241H70.4497V48.5Z" stroke="white" stroke-width="0.35" stroke-miterlimit="22.93"/>
<path d="M103.699 48.5684H102.14V53.3094H103.699V48.5684Z" stroke="white" stroke-width="0.35" stroke-miterlimit="22.93"/>
<path d="M70.4447 59.3984H68.886V64.1394H70.4447V59.3984Z" stroke="white" stroke-width="0.35" stroke-miterlimit="22.93"/>
<path d="M103.694 59.4668H102.135V64.2078H103.694V59.4668Z" stroke="white" stroke-width="0.35" stroke-miterlimit="22.93"/>
<path d="M11.7747 37.7539H10.2159V42.4949H11.7747V37.7539Z" stroke="white" stroke-width="0.35" stroke-miterlimit="22.93"/>
<path d="M61.306 24.2422H59.7473V28.9832H61.306V24.2422Z" stroke="white" stroke-width="0.35" stroke-miterlimit="22.93"/>
<path d="M94.555 24.3125H92.9963V29.0535H94.555V24.3125Z" stroke="white" stroke-width="0.35" stroke-miterlimit="22.93"/>
<path d="M61.3406 35.7129H59.7819V40.4539H61.3406V35.7129Z" stroke="white" stroke-width="0.35" stroke-miterlimit="22.93"/>
<path d="M94.5898 35.7832H93.0311V40.5242H94.5898V35.7832Z" stroke="white" stroke-width="0.35" stroke-miterlimit="22.93"/>
<path d="M11.864 59.7129H10.3053V64.4539H11.864V59.7129Z" stroke="white" stroke-width="0.35" stroke-miterlimit="22.93"/>
<path d="M11.8094 49.3142H10.2507V54.0552H11.8094V49.3142Z" stroke="white" stroke-width="0.35" stroke-miterlimit="22.93"/>
<path d="M61.425 48.4805H59.8663V53.2215H61.425V48.4805Z" stroke="white" stroke-width="0.35" stroke-miterlimit="22.93"/>
<path d="M94.6741 48.5488H93.1154V53.2898H94.6741V48.5488Z" stroke="white" stroke-width="0.35" stroke-miterlimit="22.93"/>
<path d="M61.3902 59.4531H59.8315V64.1941H61.3902V59.4531Z" stroke="white" stroke-width="0.35" stroke-miterlimit="22.93"/>
<path d="M94.6395 59.5176H93.0807V64.2586H94.6395V59.5176Z" stroke="white" stroke-width="0.35" stroke-miterlimit="22.93"/>
<path d="M82.7754 48.4746H81.2167V53.2156H82.7754V48.4746Z" stroke="white" stroke-width="0.35" stroke-miterlimit="22.93"/>
<path d="M41.2303 28.3359H39.9604V31.3108H41.2303V28.3359Z" stroke="white" stroke-width="0.35" stroke-miterlimit="22.93"/>
<path d="M48.3735 28.293H47.1036V31.2678H48.3735V28.293Z" stroke="white" stroke-width="0.35" stroke-miterlimit="22.93"/>
<path fill-rule="evenodd" clip-rule="evenodd" d="M9.86366 25.8965L9.14884 26.972L8.43402 28.0524H9.86366H11.2983L10.5785 26.972L9.86366 25.8965Z" stroke="white" stroke-width="0.35" stroke-miterlimit="22.93"/>
<path fill-rule="evenodd" clip-rule="evenodd" d="M17.8607 25.9004L17.1459 26.9808L16.4261 28.0612H17.8607H19.2953L18.5755 26.9808L17.8607 25.9004Z" stroke="white" stroke-width="0.35" stroke-miterlimit="22.93"/>
<path fill-rule="evenodd" clip-rule="evenodd" d="M25.3413 25.8867L24.6216 26.9671L23.9067 28.0475H25.3413H26.771L26.0562 26.9671L25.3413 25.8867Z" stroke="white" stroke-width="0.35" stroke-miterlimit="22.93"/>
<path fill-rule="evenodd" clip-rule="evenodd" d="M32.3755 25.8965L31.6607 26.9769L30.9459 28.0573H32.3755H33.8101L33.0903 26.9769L32.3755 25.8965Z" stroke="white" stroke-width="0.35" stroke-miterlimit="22.93"/>
<path fill-rule="evenodd" clip-rule="evenodd" d="M39.7918 25.9043L39.0769 26.9847L38.3621 28.0651H39.7918H41.2264L40.5066 26.9847L39.7918 25.9043Z" stroke="white" stroke-width="0.35" stroke-miterlimit="22.93"/>
<path fill-rule="evenodd" clip-rule="evenodd" d="M46.935 25.8594L46.2202 26.9398L45.5004 28.0202H46.935H48.3646L47.6498 26.9398L46.935 25.8594Z" stroke="white" stroke-width="0.35" stroke-miterlimit="22.93"/>
<path fill-rule="evenodd" clip-rule="evenodd" d="M80.6309 0L97.4193 9.44253L114.213 18.8851H80.6309H47.0442L63.8375 9.44253L80.6309 0Z" stroke="white" stroke-width="0.35" stroke-miterlimit="22.93"/>
<path fill-rule="evenodd" clip-rule="evenodd" d="M80.7253 1.10547L95.811 9.59091L110.902 18.0764H80.7253H50.5439L65.6346 9.59091L80.7253 1.10547Z" stroke="white" stroke-width="0.35" stroke-miterlimit="22.93"/>
<path d="M112.848 19.2559H48.4143V20.1291H112.848V19.2559Z" stroke="white" stroke-width="0.35" stroke-miterlimit="22.93"/>
<path d="M56.2972 20.8398H53.3684V68.8517H56.2972V20.8398Z" stroke="white" stroke-width="0.35" stroke-miterlimit="22.93"/>
<path d="M74.8478 20.8926H71.919V68.8798H74.8478V20.8926Z" stroke="white" stroke-width="0.35" stroke-miterlimit="22.93"/>
<path d="M89.7399 20.8086H86.8112V68.8846H89.7399V20.8086Z" stroke="white" stroke-width="0.35" stroke-miterlimit="22.93"/>
<path d="M108.082 20.8633H105.153V68.8751H108.082V20.8633Z" stroke="white" stroke-width="0.35" stroke-miterlimit="22.93"/>
<path d="M12.0626 37.5527H8.14105V42.6884H12.0626V37.5527Z" stroke="white" stroke-width="0.35" stroke-miterlimit="22.93"/>
<path d="M61.5888 24.0352H57.6672V29.1708H61.5888V24.0352Z" stroke="white" stroke-width="0.35" stroke-miterlimit="22.93"/>
<path d="M94.8429 24.1055H90.9214V29.2411H94.8429V24.1055Z" stroke="white" stroke-width="0.35" stroke-miterlimit="22.93"/>
<path d="M61.6236 35.5056H57.702V40.6413H61.6236V35.5056Z" stroke="white" stroke-width="0.35" stroke-miterlimit="22.93"/>
<path d="M94.8778 35.5742H90.9562V40.7099H94.8778V35.5742Z" stroke="white" stroke-width="0.35" stroke-miterlimit="22.93"/>
<path d="M12.1519 59.5059H8.23035V64.6415H12.1519V59.5059Z" stroke="white" stroke-width="0.35" stroke-miterlimit="22.93"/>
<path d="M12.0925 49.1074H8.1709V54.2431H12.0925V49.1074Z" stroke="white" stroke-width="0.35" stroke-miterlimit="22.93"/>
<path d="M61.7081 48.2793H57.7865V53.415H61.7081V48.2793Z" stroke="white" stroke-width="0.35" stroke-miterlimit="22.93"/>
<path d="M94.9621 48.3418H91.0405V53.4775H94.9621V48.3418Z" stroke="white" stroke-width="0.35" stroke-miterlimit="22.93"/>
<path d="M61.6732 59.2461H57.7516V64.3818H61.6732V59.2461Z" stroke="white" stroke-width="0.35" stroke-miterlimit="22.93"/>
<path d="M94.9224 59.3145H91.0008V64.4501H94.9224V59.3145Z" stroke="white" stroke-width="0.35" stroke-miterlimit="22.93"/>
<path d="M83.0583 48.2734H79.1367V53.4091H83.0583V48.2734Z" stroke="white" stroke-width="0.35" stroke-miterlimit="22.93"/>
<path d="M19.9553 37.498H16.0338V42.6337H19.9553V37.498Z" stroke="white" stroke-width="0.35" stroke-miterlimit="22.93"/>
<path d="M70.6433 24.0352H66.7217V29.1708H70.6433V24.0352Z" stroke="white" stroke-width="0.35" stroke-miterlimit="22.93"/>
<path d="M103.892 24.1055H99.9708V29.2411H103.892V24.1055Z" stroke="white" stroke-width="0.35" stroke-miterlimit="22.93"/>
<path d="M82.835 23.9766H78.9134V29.1122H82.835V23.9766Z" stroke="white" stroke-width="0.35" stroke-miterlimit="22.93"/>
<path d="M83.0385 35.541H79.1169V40.6767H83.0385V35.541Z" stroke="white" stroke-width="0.35" stroke-miterlimit="22.93"/>
<path d="M70.6383 35.541H66.7167V40.6767H70.6383V35.541Z" stroke="white" stroke-width="0.35" stroke-miterlimit="22.93"/>
<path d="M103.887 35.6055H99.9659V40.7411H103.887V35.6055Z" stroke="white" stroke-width="0.35" stroke-miterlimit="22.93"/>
<path d="M20.0448 59.457H16.1232V64.5927H20.0448V59.457Z" stroke="white" stroke-width="0.35" stroke-miterlimit="22.93"/>
<path d="M19.9853 49.0527H16.0637V54.1884H19.9853V49.0527Z" stroke="white" stroke-width="0.35" stroke-miterlimit="22.93"/>
<path d="M70.7425 48.2793H66.8209V53.415H70.7425V48.2793Z" stroke="white" stroke-width="0.35" stroke-miterlimit="22.93"/>
<path d="M103.992 48.3477H100.07V53.4833H103.992V48.3477Z" stroke="white" stroke-width="0.35" stroke-miterlimit="22.93"/>
<path d="M70.7376 59.1719H66.816V64.3075H70.7376V59.1719Z" stroke="white" stroke-width="0.35" stroke-miterlimit="22.93"/>
<path d="M84.1704 60.2129H77.6079V68.8069H84.1704V60.2129Z" stroke="white" stroke-width="0.35" stroke-miterlimit="22.93"/>
<path d="M103.987 59.2402H100.065V64.3759H103.987V59.2402Z" stroke="white" stroke-width="0.35" stroke-miterlimit="22.93"/>
<path d="M27.332 37.5586H23.4104V42.6943H27.332V37.5586Z" stroke="white" stroke-width="0.35" stroke-miterlimit="22.93"/>
<path d="M27.4214 59.5176H23.4998V64.6532H27.4214V59.5176Z" stroke="white" stroke-width="0.35" stroke-miterlimit="22.93"/>
<path d="M27.3618 49.1133H23.4402V54.249H27.3618V49.1133Z" stroke="white" stroke-width="0.35" stroke-miterlimit="22.93"/>
<path d="M34.6043 37.5432H30.6827V42.6789H34.6043V37.5432Z" stroke="white" stroke-width="0.35" stroke-miterlimit="22.93"/>
<path d="M34.6887 59.5017H30.7672V64.6374H34.6887V59.5017Z" stroke="white" stroke-width="0.35" stroke-miterlimit="22.93"/>
<path d="M34.6341 49.0977H30.7125V54.2333H34.6341V49.0977Z" stroke="white" stroke-width="0.35" stroke-miterlimit="22.93"/>
<path d="M41.9065 37.5273H37.9849V42.663H41.9065V37.5273Z" stroke="white" stroke-width="0.35" stroke-miterlimit="22.93"/>
<path d="M41.9959 59.4863H38.0743V64.622H41.9959V59.4863Z" stroke="white" stroke-width="0.35" stroke-miterlimit="22.93"/>
<path d="M41.9361 49.082H38.0145V54.2177H41.9361V49.082Z" stroke="white" stroke-width="0.35" stroke-miterlimit="22.93"/>
<path d="M49.0695 37.5137H45.1479V42.6493H49.0695V37.5137Z" stroke="white" stroke-width="0.35" stroke-miterlimit="22.93"/>
<path d="M49.154 59.4668H45.2324V64.6025H49.154V59.4668Z" stroke="white" stroke-width="0.35" stroke-miterlimit="22.93"/>
<path d="M48.9901 49.0684H45.0685V54.204H48.9901V49.0684Z" stroke="white" stroke-width="0.35" stroke-miterlimit="22.93"/>
<path d="M12.1171 47.5078H8.16077V48.83H12.1171V47.5078Z" stroke="white" stroke-width="0.35" stroke-miterlimit="22.93"/>
<path d="M61.713 46.7383H57.7567V48.0604H61.713V46.7383Z" stroke="white" stroke-width="0.35" stroke-miterlimit="22.93"/>
<path d="M158.601 33.3105H109.537V68.9297H158.601V33.3105Z" stroke="white" stroke-width="0.35" stroke-miterlimit="22.93"/>
<path d="M94.9622 46.8047H91.0058V48.1268H94.9622V46.8047Z" stroke="white" stroke-width="0.35" stroke-miterlimit="22.93"/>
<path d="M61.6732 57.6953H57.7169V59.0175H61.6732V57.6953Z" stroke="white" stroke-width="0.35" stroke-miterlimit="22.93"/>
<path d="M94.9273 57.7656H90.971V59.0878H94.9273V57.7656Z" stroke="white" stroke-width="0.35" stroke-miterlimit="22.93"/>
<path d="M83.0733 46.7539H79.1169V48.0761H83.0733V46.7539Z" stroke="white" stroke-width="0.35" stroke-miterlimit="22.93"/>
<path fill-rule="evenodd" clip-rule="evenodd" d="M159.505 69.8121V69.6887V62.8461H153.93V58.4652H148.782V62.8905H145.908V58.4258H140.884V62.8905H138.393V58.4258H133.498V62.8905H131.046V58.4258H126.231V62.8905H123.783V58.4258H118.72V62.8905H116.65V58.4258H111.244V69.8121H138.015H153.384H159.505Z" stroke="white" stroke-width="0.35" stroke-miterlimit="22.93"/>
<path d="M27.4065 47.5293H23.4501V48.8514H27.4065V47.5293Z" stroke="white" stroke-width="0.35" stroke-miterlimit="22.93"/>
<path d="M34.6043 47.5137H30.6479V48.8358H34.6043V47.5137Z" stroke="white" stroke-width="0.35" stroke-miterlimit="22.93"/>
<path d="M41.981 47.5332H38.0247V48.8554H41.981V47.5332Z" stroke="white" stroke-width="0.35" stroke-miterlimit="22.93"/>
<path d="M49.0348 47.5176H45.0785V48.8397H49.0348V47.5176Z" stroke="white" stroke-width="0.35" stroke-miterlimit="22.93"/>
<path d="M20.0101 47.5293H16.0537V48.8514H20.0101V47.5293Z" stroke="white" stroke-width="0.35" stroke-miterlimit="22.93"/>
<path d="M70.7822 46.7227H66.8259V48.0448H70.7822V46.7227Z" stroke="white" stroke-width="0.35" stroke-miterlimit="22.93"/>
<path d="M104.031 46.7891H100.075V48.1112H104.031V46.7891Z" stroke="white" stroke-width="0.35" stroke-miterlimit="22.93"/>
<path d="M70.7326 57.6367H66.7763V58.9589H70.7326V57.6367Z" stroke="white" stroke-width="0.35" stroke-miterlimit="22.93"/>
<path d="M84.1604 57.6484H77.5383V59.8586H84.1604V57.6484Z" stroke="white" stroke-width="0.35" stroke-miterlimit="22.93"/>
<path d="M103.982 57.7051H100.025V59.0272H103.982V57.7051Z" stroke="white" stroke-width="0.35" stroke-miterlimit="22.93"/>
<path d="M11.9981 47.6367H8.28998V48.6974H11.9981V47.6367Z" stroke="white" stroke-width="0.35" stroke-miterlimit="22.93"/>
<path d="M61.5938 46.8673H57.8857V47.928H61.5938V46.8673Z" stroke="white" stroke-width="0.35" stroke-miterlimit="22.93"/>
<path d="M94.848 46.9355H91.1398V47.9962H94.848V46.9355Z" stroke="white" stroke-width="0.35" stroke-miterlimit="22.93"/>
<path d="M61.5591 57.8242H57.851V58.8849H61.5591V57.8242Z" stroke="white" stroke-width="0.35" stroke-miterlimit="22.93"/>
<path d="M94.8082 57.8926H91.1001V58.9533H94.8082V57.8926Z" stroke="white" stroke-width="0.35" stroke-miterlimit="22.93"/>
<path d="M82.9542 46.8867H79.246V47.9474H82.9542V46.8867Z" stroke="white" stroke-width="0.35" stroke-miterlimit="22.93"/>
<path d="M27.2923 47.6562H23.5842V48.7169H27.2923V47.6562Z" stroke="white" stroke-width="0.35" stroke-miterlimit="22.93"/>
<path d="M34.4851 47.6406H30.777V48.7013H34.4851V47.6406Z" stroke="white" stroke-width="0.35" stroke-miterlimit="22.93"/>
<path d="M41.8666 47.668H38.1585V48.7287H41.8666V47.668Z" stroke="white" stroke-width="0.35" stroke-miterlimit="22.93"/>
<path d="M48.9157 47.6523H45.2075V48.713H48.9157V47.6523Z" stroke="white" stroke-width="0.35" stroke-miterlimit="22.93"/>
<path d="M19.8909 47.6562H16.1828V48.7169H19.8909V47.6562Z" stroke="white" stroke-width="0.35" stroke-miterlimit="22.93"/>
<path d="M70.6631 46.8516H66.955V47.9122H70.6631V46.8516Z" stroke="white" stroke-width="0.35" stroke-miterlimit="22.93"/>
<path d="M103.917 46.9219H100.209V47.9826H103.917V46.9219Z" stroke="white" stroke-width="0.35" stroke-miterlimit="22.93"/>
<path d="M70.6185 57.7695H66.9103V58.8302H70.6185V57.7695Z" stroke="white" stroke-width="0.35" stroke-miterlimit="22.93"/>
<path d="M83.9717 57.8652H77.7617V59.6413H83.9717V57.8652Z" stroke="white" stroke-width="0.35" stroke-miterlimit="22.93"/>
<path d="M103.868 57.8398H100.159V58.9005H103.868V57.8398Z" stroke="white" stroke-width="0.35" stroke-miterlimit="22.93"/>
<path d="M51.7104 33.3105H2.64581V68.9297H51.7104V33.3105Z" stroke="white" stroke-width="0.35" stroke-miterlimit="22.93"/>
<path fill-rule="evenodd" clip-rule="evenodd" d="M1.6283 69.8121V69.6887V62.8461H7.21781V58.4702H12.3804V62.8905H15.2546V58.4258H20.2931V62.8905H22.79V58.4258H27.6994V62.8905H30.1517V58.4258H34.9767V62.8905H37.4339V58.4258H42.5121V62.8905H44.5871V58.4258H50.0029V69.817H23.1722H7.76385L1.6283 69.8121Z" stroke="white" stroke-width="0.35" stroke-miterlimit="22.93"/>
<path fill-rule="evenodd" clip-rule="evenodd" d="M113.274 18.3526L114.352 18.3477H135.935L158.606 27.4547L161.247 32.8568L153.553 32.8666V27.3955L151.433 24.0309L149.224 27.3018H145.273L143.53 24.0112L141.376 27.356H137.822L135.935 23.9865L133.97 27.356H130.872L128.971 24.0112L126.752 27.3758H123.426L121.584 23.9668L119.47 27.356H116.268L114.367 23.9668L112.272 27.4004H112.023V23.4488H113.046L114.237 18.8953L113.274 18.3526Z" stroke="white" stroke-width="0.35" stroke-miterlimit="22.93"/>
<path fill-rule="evenodd" clip-rule="evenodd" d="M151.398 25.5488L153.071 28.0649V31.612H149.686V28.0649L151.398 25.5488Z" stroke="white" stroke-width="0.35" stroke-miterlimit="22.93"/>
<path fill-rule="evenodd" clip-rule="evenodd" d="M143.396 25.5469L145.069 28.0629V31.6051H141.684V28.0629L143.396 25.5469Z" stroke="white" stroke-width="0.35" stroke-miterlimit="22.93"/>
<path fill-rule="evenodd" clip-rule="evenodd" d="M135.925 25.5469L137.598 28.0629V31.61H134.213V28.0629L135.925 25.5469Z" stroke="white" stroke-width="0.35" stroke-miterlimit="22.93"/>
<path fill-rule="evenodd" clip-rule="evenodd" d="M128.891 25.5488L130.564 28.0599V31.607H127.179V28.0599L128.891 25.5488Z" stroke="white" stroke-width="0.35" stroke-miterlimit="22.93"/>
<path fill-rule="evenodd" clip-rule="evenodd" d="M121.48 25.5312L123.153 28.0473V31.5895H119.767V28.0473L121.48 25.5312Z" stroke="white" stroke-width="0.35" stroke-miterlimit="22.93"/>
<path fill-rule="evenodd" clip-rule="evenodd" d="M114.337 25.5352L116.01 28.0463V31.5934H112.624V28.0463L114.337 25.5352Z" stroke="white" stroke-width="0.35" stroke-miterlimit="22.93"/>
<path d="M152.668 28.4961H151.532V31.1947H152.668V28.4961Z" stroke="white" stroke-width="0.35" stroke-miterlimit="22.93"/>
<path d="M149.184 27.4238H145.327V32.8308H149.184V27.4238Z" stroke="white" stroke-width="0.35" stroke-miterlimit="22.93"/>
<path d="M141.366 27.4199H137.802V32.8269H141.366V27.4199Z" stroke="white" stroke-width="0.35" stroke-miterlimit="22.93"/>
<path d="M133.96 27.4336H130.882V32.8406H133.96V27.4336Z" stroke="white" stroke-width="0.35" stroke-miterlimit="22.93"/>
<path d="M126.787 27.4396H123.441V32.8466H126.787V27.4396Z" stroke="white" stroke-width="0.35" stroke-miterlimit="22.93"/>
<path d="M119.465 27.4297H116.263V32.8367H119.465V27.4297Z" stroke="white" stroke-width="0.35" stroke-miterlimit="22.93"/>
<path d="M144.676 28.5059H143.54V31.2044H144.676V28.5059Z" stroke="white" stroke-width="0.35" stroke-miterlimit="22.93"/>
<path d="M137.195 28.4904H136.059V31.1889H137.195V28.4904Z" stroke="white" stroke-width="0.35" stroke-miterlimit="22.93"/>
<path d="M130.156 28.5H129.02V31.1986H130.156V28.5Z" stroke="white" stroke-width="0.35" stroke-miterlimit="22.93"/>
<path d="M115.816 37.9141H114.426V42.3936H115.816V37.9141Z" stroke="white" stroke-width="0.35" stroke-miterlimit="22.93"/>
<path d="M115.727 59.873H114.337V64.3526H115.727V59.873Z" stroke="white" stroke-width="0.35" stroke-miterlimit="22.93"/>
<path d="M115.895 49.4727H114.506V53.9522H115.895V49.4727Z" stroke="white" stroke-width="0.35" stroke-miterlimit="22.93"/>
<path d="M122.91 37.8633H121.52V42.3428H122.91V37.8633Z" stroke="white" stroke-width="0.35" stroke-miterlimit="22.93"/>
<path d="M122.82 59.8223H121.43V64.3018H122.82V59.8223Z" stroke="white" stroke-width="0.35" stroke-miterlimit="22.93"/>
<path d="M122.88 49.418H121.49V53.8975H122.88V49.418Z" stroke="white" stroke-width="0.35" stroke-miterlimit="22.93"/>
<path d="M130.296 37.8828H128.906V42.3623H130.296V37.8828Z" stroke="white" stroke-width="0.35" stroke-miterlimit="22.93"/>
<path d="M130.207 59.8418H128.817V64.3213H130.207V59.8418Z" stroke="white" stroke-width="0.35" stroke-miterlimit="22.93"/>
<path d="M130.266 49.4434H128.876V53.9229H130.266V49.4434Z" stroke="white" stroke-width="0.35" stroke-miterlimit="22.93"/>
<path d="M137.539 37.875H136.149V42.3545H137.539V37.875Z" stroke="white" stroke-width="0.35" stroke-miterlimit="22.93"/>
<path d="M137.449 59.832H136.059V64.3116H137.449V59.832Z" stroke="white" stroke-width="0.35" stroke-miterlimit="22.93"/>
<path d="M137.509 49.4316H136.119V53.9112H137.509V49.4316Z" stroke="white" stroke-width="0.35" stroke-miterlimit="22.93"/>
<path d="M144.925 37.8789H143.535V42.3584H144.925V37.8789Z" stroke="white" stroke-width="0.35" stroke-miterlimit="22.93"/>
<path d="M144.836 59.832H143.446V64.3116H144.836V59.832Z" stroke="white" stroke-width="0.35" stroke-miterlimit="22.93"/>
<path d="M144.895 49.4316H143.505V53.9112H144.895V49.4316Z" stroke="white" stroke-width="0.35" stroke-miterlimit="22.93"/>
<path d="M152.808 37.9082H151.418V42.3877H152.808V37.9082Z" stroke="white" stroke-width="0.35" stroke-miterlimit="22.93"/>
<path d="M152.719 59.8672H151.329V64.3467H152.719V59.8672Z" stroke="white" stroke-width="0.35" stroke-miterlimit="22.93"/>
<path d="M152.778 49.4668H151.388V53.9463H152.778V49.4668Z" stroke="white" stroke-width="0.35" stroke-miterlimit="22.93"/>
<path d="M122.74 28.5098H121.604V31.2083H122.74V28.5098Z" stroke="white" stroke-width="0.35" stroke-miterlimit="22.93"/>
<path d="M115.602 28.4668H114.466V31.1654H115.602V28.4668Z" stroke="white" stroke-width="0.35" stroke-miterlimit="22.93"/>
<path d="M151.214 28.3223H149.944V31.2971H151.214V28.3223Z" stroke="white" stroke-width="0.35" stroke-miterlimit="22.93"/>
<path d="M143.217 28.334H141.947V31.3088H143.217V28.334Z" stroke="white" stroke-width="0.35" stroke-miterlimit="22.93"/>
<path d="M135.736 28.3184H134.466V31.2932H135.736V28.3184Z" stroke="white" stroke-width="0.35" stroke-miterlimit="22.93"/>
<path d="M128.702 28.3281H127.432V31.303H128.702V28.3281Z" stroke="white" stroke-width="0.35" stroke-miterlimit="22.93"/>
<path d="M114.034 37.7598H112.475V42.5008H114.034V37.7598Z" stroke="white" stroke-width="0.35" stroke-miterlimit="22.93"/>
<path d="M113.945 59.7188H112.386V64.4597H113.945V59.7188Z" stroke="white" stroke-width="0.35" stroke-miterlimit="22.93"/>
<path d="M114.113 49.3203H112.555V54.0613H114.113V49.3203Z" stroke="white" stroke-width="0.35" stroke-miterlimit="22.93"/>
<path d="M121.128 37.7109H119.569V42.4519H121.128V37.7109Z" stroke="white" stroke-width="0.35" stroke-miterlimit="22.93"/>
<path d="M121.038 59.6699H119.479V64.4109H121.038V59.6699Z" stroke="white" stroke-width="0.35" stroke-miterlimit="22.93"/>
<path d="M121.098 49.2656H119.539V54.0066H121.098V49.2656Z" stroke="white" stroke-width="0.35" stroke-miterlimit="22.93"/>
<path d="M128.514 37.7305H126.955V42.4715H128.514V37.7305Z" stroke="white" stroke-width="0.35" stroke-miterlimit="22.93"/>
<path d="M128.425 59.6895H126.866V64.4304H128.425V59.6895Z" stroke="white" stroke-width="0.35" stroke-miterlimit="22.93"/>
<path d="M128.484 49.2891H126.926V54.0301H128.484V49.2891Z" stroke="white" stroke-width="0.35" stroke-miterlimit="22.93"/>
<path d="M135.757 37.7208H134.198V42.4618H135.757V37.7208Z" stroke="white" stroke-width="0.35" stroke-miterlimit="22.93"/>
<path d="M135.667 59.6797H134.109V64.4207H135.667V59.6797Z" stroke="white" stroke-width="0.35" stroke-miterlimit="22.93"/>
<path d="M135.727 49.2812H134.168V54.0222H135.727V49.2812Z" stroke="white" stroke-width="0.35" stroke-miterlimit="22.93"/>
<path d="M143.143 37.7266H141.584V42.4676H143.143V37.7266Z" stroke="white" stroke-width="0.35" stroke-miterlimit="22.93"/>
<path d="M143.054 59.6797H141.495V64.4207H143.054V59.6797Z" stroke="white" stroke-width="0.35" stroke-miterlimit="22.93"/>
<path d="M143.113 49.2812H141.555V54.0222H143.113V49.2812Z" stroke="white" stroke-width="0.35" stroke-miterlimit="22.93"/>
<path d="M151.026 37.7539H149.467V42.4949H151.026V37.7539Z" stroke="white" stroke-width="0.35" stroke-miterlimit="22.93"/>
<path d="M150.937 59.7129H149.378V64.4539H150.937V59.7129Z" stroke="white" stroke-width="0.35" stroke-miterlimit="22.93"/>
<path d="M150.996 49.3142H149.438V54.0552H150.996V49.3142Z" stroke="white" stroke-width="0.35" stroke-miterlimit="22.93"/>
<path d="M121.285 28.3359H120.016V31.3108H121.285V28.3359Z" stroke="white" stroke-width="0.35" stroke-miterlimit="22.93"/>
<path d="M114.142 28.293H112.872V31.2678H114.142V28.293Z" stroke="white" stroke-width="0.35" stroke-miterlimit="22.93"/>
<path fill-rule="evenodd" clip-rule="evenodd" d="M151.383 25.8906L152.098 26.971L152.813 28.0515H151.383H149.949L150.669 26.971L151.383 25.8906Z" stroke="white" stroke-width="0.35" stroke-miterlimit="22.93"/>
<path fill-rule="evenodd" clip-rule="evenodd" d="M143.386 25.9004L144.101 26.9808L144.816 28.0612H143.386H141.952L142.672 26.9808L143.386 25.9004Z" stroke="white" stroke-width="0.35" stroke-miterlimit="22.93"/>
<path fill-rule="evenodd" clip-rule="evenodd" d="M135.906 25.8867L136.62 26.9671L137.34 28.0475H135.906H134.476L135.191 26.9671L135.906 25.8867Z" stroke="white" stroke-width="0.35" stroke-miterlimit="22.93"/>
<path fill-rule="evenodd" clip-rule="evenodd" d="M128.872 25.8965L129.586 26.9769L130.301 28.0573H128.872H127.437L128.152 26.9769L128.872 25.8965Z" stroke="white" stroke-width="0.35" stroke-miterlimit="22.93"/>
<path fill-rule="evenodd" clip-rule="evenodd" d="M121.455 25.9043L122.17 26.9847L122.885 28.0651H121.455H120.021L120.735 26.9847L121.455 25.9043Z" stroke="white" stroke-width="0.35" stroke-miterlimit="22.93"/>
<path fill-rule="evenodd" clip-rule="evenodd" d="M114.312 25.8594L115.027 26.9398L115.747 28.0202H114.312H112.882L113.597 26.9398L114.312 25.8594Z" stroke="white" stroke-width="0.35" stroke-miterlimit="22.93"/>
<path d="M153.106 37.5527H149.184V42.6884H153.106V37.5527Z" stroke="white" stroke-width="0.35" stroke-miterlimit="22.93"/>
<path d="M153.017 59.5059H149.095V64.6415H153.017V59.5059Z" stroke="white" stroke-width="0.35" stroke-miterlimit="22.93"/>
<path d="M153.076 49.1074H149.155V54.2431H153.076V49.1074Z" stroke="white" stroke-width="0.35" stroke-miterlimit="22.93"/>
<path d="M145.213 37.498H141.292V42.6337H145.213V37.498Z" stroke="white" stroke-width="0.35" stroke-miterlimit="22.93"/>
<path d="M145.129 59.457H141.207V64.5927H145.129V59.457Z" stroke="white" stroke-width="0.35" stroke-miterlimit="22.93"/>
<path d="M145.183 49.0527H141.262V54.1884H145.183V49.0527Z" stroke="white" stroke-width="0.35" stroke-miterlimit="22.93"/>
<path d="M137.837 37.5586H133.915V42.6943H137.837V37.5586Z" stroke="white" stroke-width="0.35" stroke-miterlimit="22.93"/>
<path d="M137.747 59.5176H133.826V64.6532H137.747V59.5176Z" stroke="white" stroke-width="0.35" stroke-miterlimit="22.93"/>
<path d="M137.807 49.1133H133.885V54.249H137.807V49.1133Z" stroke="white" stroke-width="0.35" stroke-miterlimit="22.93"/>
<path d="M130.569 37.5432H126.648V42.6789H130.569V37.5432Z" stroke="white" stroke-width="0.35" stroke-miterlimit="22.93"/>
<path d="M130.48 59.5017H126.558V64.6374H130.48V59.5017Z" stroke="white" stroke-width="0.35" stroke-miterlimit="22.93"/>
<path d="M130.534 49.0977H126.613V54.2333H130.534V49.0977Z" stroke="white" stroke-width="0.35" stroke-miterlimit="22.93"/>
<path d="M123.262 37.5273H119.341V42.663H123.262V37.5273Z" stroke="white" stroke-width="0.35" stroke-miterlimit="22.93"/>
<path d="M123.173 59.4805H119.251V64.6161H123.173V59.4805Z" stroke="white" stroke-width="0.35" stroke-miterlimit="22.93"/>
<path d="M123.232 49.082H119.311V54.2177H123.232V49.082Z" stroke="white" stroke-width="0.35" stroke-miterlimit="22.93"/>
<path d="M116.104 37.5137H112.182V42.6493H116.104V37.5137Z" stroke="white" stroke-width="0.35" stroke-miterlimit="22.93"/>
<path d="M116.015 59.4668H112.093V64.6025H116.015V59.4668Z" stroke="white" stroke-width="0.35" stroke-miterlimit="22.93"/>
<path d="M116.183 49.0684H112.262V54.204H116.183V49.0684Z" stroke="white" stroke-width="0.35" stroke-miterlimit="22.93"/>
<path d="M153.086 47.5078H149.13V48.83H153.086V47.5078Z" stroke="white" stroke-width="0.35" stroke-miterlimit="22.93"/>
<path d="M137.797 47.5293H133.84V48.8514H137.797V47.5293Z" stroke="white" stroke-width="0.35" stroke-miterlimit="22.93"/>
<path d="M130.599 47.5137H126.643V48.8358H130.599V47.5137Z" stroke="white" stroke-width="0.35" stroke-miterlimit="22.93"/>
<path d="M123.222 47.5332H119.266V48.8554H123.222V47.5332Z" stroke="white" stroke-width="0.35" stroke-miterlimit="22.93"/>
<path d="M116.168 47.5176H112.212V48.8397H116.168V47.5176Z" stroke="white" stroke-width="0.35" stroke-miterlimit="22.93"/>
<path d="M145.193 47.5293H141.237V48.8514H145.193V47.5293Z" stroke="white" stroke-width="0.35" stroke-miterlimit="22.93"/>
<path d="M152.952 47.6367H149.244V48.6974H152.952V47.6367Z" stroke="white" stroke-width="0.35" stroke-miterlimit="22.93"/>
<path d="M137.663 47.6562H133.955V48.7169H137.663V47.6562Z" stroke="white" stroke-width="0.35" stroke-miterlimit="22.93"/>
<path d="M130.465 47.6406H126.757V48.7013H130.465V47.6406Z" stroke="white" stroke-width="0.35" stroke-miterlimit="22.93"/>
<path d="M123.088 47.668H119.38V48.7287H123.088V47.668Z" stroke="white" stroke-width="0.35" stroke-miterlimit="22.93"/>
<path d="M116.039 47.6523H112.331V48.713H116.039V47.6523Z" stroke="white" stroke-width="0.35" stroke-miterlimit="22.93"/>
<path d="M145.064 47.6562H141.356V48.7169H145.064V47.6562Z" stroke="white" stroke-width="0.35" stroke-miterlimit="22.93"/>
<path d="M110.946 69.0586H50.3305V69.8134H110.946V69.0586Z" stroke="white" stroke-width="0.35" stroke-miterlimit="22.93"/>
<path fill-rule="evenodd" clip-rule="evenodd" d="M95.6124 17.0561H94.9125L94.6345 16.2224H93.3438L93.0807 17.0561H92.3907L93.6367 13.3906H94.3267L95.6124 17.0561ZM94.426 15.5761L93.9792 14.2194L93.5424 15.5761H94.426Z" fill="white" stroke="white" stroke-width="0.35" stroke-miterlimit="22.93"/>
<path fill-rule="evenodd" clip-rule="evenodd" d="M89.2386 17.0561V13.3906H89.8889V15.0137L91.2043 13.3906H92.078L90.8618 14.8164L92.1376 17.0561H91.2987L90.4151 15.3344L89.8889 15.9461V17.0561H89.2386Z" fill="white" stroke="white" stroke-width="0.35" stroke-miterlimit="22.93"/>
<path fill-rule="evenodd" clip-rule="evenodd" d="M95.8804 17.0561V13.3906H98.0894V14.0073H96.5307V14.8805H97.876V15.4972H96.5307V17.0561H95.8804Z" fill="white" stroke="white" stroke-width="0.35" stroke-miterlimit="22.93"/>
<path fill-rule="evenodd" clip-rule="evenodd" d="M98.7547 13.3203H99.405V15.2937C99.3977 15.4979 99.406 15.7024 99.4298 15.9054C99.449 16.046 99.5176 16.1753 99.6234 16.2705C99.7447 16.3649 99.8965 16.4122 100.05 16.4037C100.199 16.4151 100.347 16.3692 100.462 16.2754C100.554 16.1931 100.614 16.0814 100.631 15.9597C100.651 15.7531 100.659 15.5456 100.656 15.3381V13.3203H101.306V15.2493C101.315 15.5609 101.298 15.8727 101.257 16.1817C101.228 16.3488 101.162 16.5073 101.063 16.6454C100.963 16.7733 100.834 16.875 100.686 16.9414C100.491 17.0234 100.281 17.0621 100.07 17.0549C99.8303 17.0688 99.5906 17.0266 99.3702 16.9316C99.2216 16.8588 99.0936 16.7503 98.9979 16.6158C98.9079 16.4958 98.8452 16.3578 98.8142 16.2113C98.7677 15.9027 98.7478 15.5908 98.7547 15.2789V13.3203Z" fill="white" stroke="white" stroke-width="0.35" stroke-miterlimit="22.93"/>
<path fill-rule="evenodd" clip-rule="evenodd" d="M81.0082 17.0561H80.3083L80.0303 16.2224H78.7397L78.4716 17.0561H77.7965L79.0474 13.3906H79.7325L81.0231 17.0561H81.0082ZM79.8169 15.5761L79.3701 14.2194L78.9382 15.5761H79.8169Z" fill="white" stroke="white" stroke-width="0.35" stroke-miterlimit="22.93"/>
<path fill-rule="evenodd" clip-rule="evenodd" d="M74.6344 17.0561V13.3906H75.2847V15.0137L76.5952 13.3906H77.4689L76.2576 14.8164L77.5334 17.0561H76.6895L75.8059 15.3344L75.2847 15.9461V17.0561H74.6344Z" fill="white" stroke="white" stroke-width="0.35" stroke-miterlimit="22.93"/>
<path fill-rule="evenodd" clip-rule="evenodd" d="M83.4455 15.6435L84.0759 15.8606C84.0094 16.2057 83.8358 16.5214 83.5795 16.7634C83.341 16.9622 83.0368 17.066 82.7257 17.0545C82.5239 17.0583 82.3239 17.0158 82.1414 16.9302C81.9588 16.8447 81.7987 16.7183 81.6733 16.5611C81.3841 16.1656 81.242 15.6826 81.2712 15.1946C81.2389 14.6871 81.3864 14.1844 81.6882 13.7738C81.8176 13.6124 81.9835 13.4836 82.1724 13.3979C82.3613 13.3121 82.5679 13.2719 82.7753 13.2804C82.9547 13.2736 83.1334 13.3058 83.2989 13.3748C83.4644 13.4439 83.6127 13.548 83.7334 13.68C83.901 13.8731 84.0156 14.1059 84.066 14.3559L83.4207 14.5286C83.395 14.3563 83.3109 14.1979 83.1824 14.0796C83.0631 13.9718 82.9068 13.9136 82.7455 13.9168C82.6321 13.9141 82.5198 13.9393 82.4185 13.9901C82.3172 14.0408 82.23 14.1157 82.1648 14.2079C81.9915 14.4923 81.9133 14.8238 81.9414 15.1551C81.9123 15.4984 81.9885 15.8423 82.1598 16.1418C82.2232 16.2338 82.3085 16.309 82.4081 16.3606C82.5076 16.4122 82.6184 16.4387 82.7307 16.4378C82.8142 16.4397 82.8973 16.424 82.9743 16.3917C83.0513 16.3594 83.1205 16.3112 83.1774 16.2503C83.325 16.0787 83.4183 15.8676 83.4455 15.6435Z" fill="white" stroke="white" stroke-width="0.35" stroke-miterlimit="22.93"/>
<path fill-rule="evenodd" clip-rule="evenodd" d="M84.2498 13.3457H84.9795L85.739 15.2401L86.3793 13.3457H87.0594L85.9723 16.1281C85.8851 16.3743 85.7631 16.6069 85.6099 16.8188C85.5533 16.896 85.4784 16.9581 85.3917 16.9994C85.3051 17.0407 85.2095 17.06 85.1135 17.0556C84.9633 17.0603 84.8131 17.0454 84.6667 17.0112V16.4636H84.9149C85.0302 16.4706 85.1443 16.4375 85.2376 16.3699C85.3283 16.2484 85.391 16.1086 85.4213 15.9604L84.2498 13.3457Z" fill="white" stroke="white" stroke-width="0.35" stroke-miterlimit="22.93"/>
<path fill-rule="evenodd" clip-rule="evenodd" d="M66.0862 17.1079H65.3863L65.1083 16.2693H63.8177L63.5496 17.1079H62.8646L64.1105 13.4375H64.8005L66.0862 17.1079ZM64.8998 15.6279L64.4531 14.2712L64.0162 15.6279H64.8998Z" fill="white" stroke="white" stroke-width="0.35" stroke-miterlimit="22.93"/>
<path fill-rule="evenodd" clip-rule="evenodd" d="M66.3494 17.1079V13.4375H68.7321V14.0591H67.0046V14.8731H68.613V15.4947H67.0046V16.4863H68.7966V17.1079H66.3494Z" fill="white" stroke="white" stroke-width="0.35" stroke-miterlimit="22.93"/>
<path fill-rule="evenodd" clip-rule="evenodd" d="M69.3179 13.3945H70.0476L70.7972 15.2939L71.4375 13.3945H72.1126L71.0255 16.1819C70.9372 16.4276 70.8152 16.66 70.6631 16.8726C70.6098 16.9472 70.539 17.0078 70.4569 17.049C70.3747 17.0903 70.2836 17.111 70.1915 17.1094C70.0397 17.1137 69.8879 17.0988 69.7398 17.065V16.5124C69.8225 16.517 69.9053 16.517 69.988 16.5124C70.1038 16.5241 70.2195 16.4905 70.3107 16.4187C70.4038 16.2999 70.4683 16.1615 70.4993 16.0142L69.3179 13.3945Z" fill="white" stroke="white" stroke-width="0.35" stroke-miterlimit="22.93"/>
<path fill-rule="evenodd" clip-rule="evenodd" d="M59.7124 17.1079V13.4375H60.3627V15.0655L61.6782 13.4375H62.5469L61.3356 14.8682L62.6114 17.1079H61.7725L60.8889 15.3862L60.3627 15.9979V17.1079H59.7124Z" fill="white" stroke="white" stroke-width="0.35" stroke-miterlimit="22.93"/>
<path d="M62.6706 16.9316H62.0555V17.5187H62.6706V16.9316Z" fill="white" stroke="white" stroke-width="0.35" stroke-miterlimit="22.93"/>
<path fill-rule="evenodd" clip-rule="evenodd" d="M80.621 12.2359C81.5649 12.2369 82.4879 11.9595 83.2731 11.439C84.0584 10.9184 84.6706 10.178 85.0323 9.31148C85.394 8.44498 85.4888 7.49131 85.3049 6.57119C85.121 5.65107 84.6666 4.80585 83.9991 4.14251C83.3317 3.47918 82.4812 3.02754 81.5554 2.84476C80.6295 2.66199 79.6699 2.75629 78.7981 3.11574C77.9262 3.47519 77.1812 4.08362 76.6574 4.86402C76.1336 5.64443 75.8545 6.56174 75.8555 7.49984C75.8581 8.75512 76.361 9.95824 77.2541 10.8459C78.1473 11.7335 79.3579 12.2333 80.621 12.2359Z" stroke="white" stroke-width="0.22" stroke-miterlimit="22.93"/>
<path fill-rule="evenodd" clip-rule="evenodd" d="M80.621 12.0126C81.5208 12.0136 82.4006 11.7492 83.1491 11.2531C83.8976 10.7569 84.4812 10.0512 84.826 9.22523C85.1707 8.39929 85.2612 7.49026 85.0859 6.6132C84.9106 5.73614 84.4775 4.93048 83.8412 4.29819C83.205 3.6659 82.3944 3.23541 81.5119 3.0612C80.6294 2.88699 79.7147 2.9769 78.8836 3.31954C78.0525 3.66219 77.3424 4.24216 76.8432 4.98606C76.3439 5.72996 76.0779 6.60434 76.0789 7.49854C76.0815 8.69494 76.5609 9.84159 77.4122 10.6876C78.2634 11.5336 79.4172 12.01 80.621 12.0126Z" stroke="white" stroke-width="0.22" stroke-miterlimit="22.93"/>
<path fill-rule="evenodd" clip-rule="evenodd" d="M78.6255 6.05776V6.19096H78.1539V6.05776H77.9703V5.84562H83.2818V6.05776H83.0683V6.19096H82.6017V6.05776H82.3188V6.19096H81.8521V6.05776H81.5642V6.19096H81.0976V6.05776H80.8345V6.19096H80.3381V6.05776H80.1048V6.19096H79.6332V6.05776H79.3503V6.19096H78.8836V6.05776H78.6255ZM82.8598 9.6394H82.9095C82.9059 9.65232 82.9059 9.66596 82.9095 9.67887H82.9492C82.9546 9.68149 82.9605 9.68285 82.9666 9.68285C82.9726 9.68285 82.9785 9.68149 82.9839 9.67887H82.9442C82.923 9.67209 82.9029 9.66211 82.8847 9.64927C82.8811 9.64153 82.8792 9.63312 82.8792 9.6246C82.8792 9.61609 82.8811 9.60768 82.8847 9.59994C82.8817 9.58861 82.8817 9.57673 82.8847 9.5654C82.8919 9.55319 82.9021 9.54301 82.9144 9.5358H82.9641C82.9896 9.53484 83.0145 9.54368 83.0336 9.56047C83.0415 9.5671 83.0479 9.57541 83.0522 9.5848C83.0565 9.59419 83.0586 9.60442 83.0584 9.61474H83.0088C83.0114 9.61024 83.0127 9.60513 83.0127 9.59994C83.0127 9.59474 83.0114 9.58963 83.0088 9.58514H82.979H82.9442C82.9589 9.58869 82.9742 9.58869 82.9889 9.58514C83.0068 9.58075 83.0256 9.58075 83.0435 9.58514L83.0733 9.6098C83.0761 9.62281 83.0761 9.63626 83.0733 9.64927C83.0783 9.66196 83.0783 9.67605 83.0733 9.68874C83.07 9.69588 83.0652 9.70222 83.0592 9.70733C83.0532 9.71244 83.0461 9.7162 83.0385 9.71834H82.9889C82.9649 9.72745 82.9384 9.72745 82.9144 9.71834C82.8978 9.69879 82.8874 9.67473 82.8847 9.64927L82.8598 9.6394ZM82.6216 9.72327V9.46673H82.7308H82.7854C82.7854 9.46673 82.7854 9.46673 82.8152 9.4914C82.818 9.50441 82.818 9.51786 82.8152 9.53087C82.8152 9.54836 82.8086 9.56522 82.7966 9.57804C82.7846 9.59086 82.7682 9.59869 82.7506 9.59994L82.7754 9.6246C82.7889 9.6347 82.7992 9.64838 82.8052 9.66407L82.835 9.7134H82.7754L82.7606 9.669V9.62954H82.7208V9.73807L82.6216 9.72327ZM82.6712 9.57527H82.7606C82.7632 9.56726 82.7632 9.55861 82.7606 9.5506H82.6811V9.61474L82.6712 9.57527ZM82.3932 9.72327V9.46673H82.5769V9.51113H82.4429V9.57034H82.567V9.6098H82.4429V9.67887H82.5818V9.72327H82.3932ZM82.145 9.46673H82.2641L82.3039 9.4914C82.3074 9.50599 82.3074 9.52122 82.3039 9.5358C82.3068 9.55543 82.3068 9.57538 82.3039 9.595C82.3066 9.61299 82.3066 9.63128 82.3039 9.64927C82.2982 9.66651 82.2879 9.68187 82.2741 9.69367C82.2741 9.69367 82.2741 9.69367 82.2393 9.69367H82.1053V9.43713L82.145 9.46673ZM82.1946 9.51113V9.67887H82.2641V9.6542C82.2668 9.63787 82.2668 9.62121 82.2641 9.60487C82.2672 9.59023 82.2672 9.57511 82.2641 9.56047H82.2393H82.1798L82.1946 9.51113ZM82.1152 9.72327H82.0606V9.66407H81.9613V9.72327H81.9067L82.0011 9.46673H82.0557L82.1549 9.72327H82.1152ZM82.0259 9.6246L81.9911 9.52594L81.9564 9.6246H82.0259ZM81.6635 9.72327V9.46673H81.8472V9.51113H81.7131V9.57034H81.8372V9.6098H81.7131V9.67887H81.8521V9.72327H81.6635ZM81.45 9.72327V9.47167H81.5046V9.67887H81.6287V9.72327H81.45ZM81.1224 9.72327V9.46673H81.3061V9.51113H81.1721V9.57034H81.2962V9.6098H81.1721V9.67887H81.3111V9.72327H81.1224ZM80.8742 9.72327V9.46673H80.9785H81.038C81.0503 9.47173 81.0607 9.48034 81.0678 9.4914C81.0706 9.50441 81.0706 9.51786 81.0678 9.53087C81.0736 9.54511 81.0736 9.56103 81.0678 9.57527C81.0617 9.58255 81.0541 9.5885 81.0456 9.59274C81.037 9.59699 81.0277 9.59943 81.0182 9.59994C81.0182 9.59994 81.0182 9.59994 81.043 9.6246C81.0678 9.64927 81.043 9.6246 81.0728 9.66407L81.1026 9.7134H81.043L81.0082 9.65914L80.9785 9.61967H80.9437V9.7282L80.8742 9.72327ZM80.9239 9.57527H81.0082C81.0113 9.56733 81.0113 9.55854 81.0082 9.5506H80.9338V9.61474L80.9239 9.57527ZM80.626 9.46673H80.6757V9.64927H80.7104H80.7402V9.4618H80.7898V9.59994C80.7929 9.6212 80.7929 9.64281 80.7898 9.66407C80.7932 9.67365 80.7932 9.68409 80.7898 9.69367C80.7817 9.69576 80.7731 9.69576 80.765 9.69367C80.7489 9.69894 80.7315 9.69894 80.7154 9.69367H80.6608H80.631C80.6288 9.68392 80.6288 9.67382 80.631 9.66407C80.6279 9.64281 80.6279 9.6212 80.631 9.59994V9.4618L80.626 9.46673ZM80.4672 9.72327V9.51113H80.3977V9.46673H80.5913V9.51113H80.5168V9.72327H80.4672ZM80.1644 9.46673H80.214V9.64927H80.2487H80.2785V9.4618H80.3282V9.66407V9.69367H80.2984C80.2823 9.69894 80.2649 9.69894 80.2487 9.69367H80.1941C80.186 9.69576 80.1775 9.69576 80.1693 9.69367C80.1659 9.68409 80.1659 9.67365 80.1693 9.66407C80.1662 9.64281 80.1662 9.6212 80.1693 9.59994V9.4618L80.1644 9.46673ZM79.9509 9.72327V9.46673H80.1197V9.51113H80.0005V9.57034H80.1048V9.61474H80.0005V9.72327H79.9509ZM79.7027 9.62954V9.58514H79.8119V9.68874L79.7623 9.71834H79.7027C79.6816 9.72399 79.6593 9.72399 79.6382 9.71834C79.6195 9.70575 79.6041 9.68881 79.5935 9.669C79.5836 9.6473 79.5785 9.62375 79.5785 9.59994C79.5785 9.57612 79.5836 9.55257 79.5935 9.53087C79.603 9.50869 79.6208 9.49102 79.6431 9.48153C79.6626 9.47578 79.6833 9.47578 79.7027 9.48153C79.7254 9.47522 79.7495 9.47522 79.7722 9.48153C79.7909 9.4962 79.8033 9.51735 79.8069 9.54074H79.7573C79.7607 9.53116 79.7607 9.52071 79.7573 9.51113C79.7518 9.50883 79.7459 9.50764 79.7399 9.50764C79.734 9.50764 79.7281 9.50883 79.7226 9.51113C79.7122 9.51093 79.7019 9.51304 79.6924 9.51731C79.683 9.52158 79.6746 9.5279 79.668 9.5358C79.6549 9.55469 79.648 9.57704 79.648 9.59994C79.648 9.62283 79.6549 9.64519 79.668 9.66407C79.6764 9.6684 79.6858 9.67065 79.6953 9.67065C79.7048 9.67065 79.7141 9.6684 79.7226 9.66407H79.7523V9.62954H79.7027ZM79.3354 9.72327V9.46673H79.385L79.4892 9.6394V9.46673H79.5339V9.72327H79.4843L79.385 9.55554V9.72327H79.3354ZM79.241 9.72327V9.46673H79.2907V9.72327H79.241ZM78.9928 9.72327V9.46673H79.0375L79.1418 9.6394V9.46673H79.1864V9.72327H79.1368L79.0375 9.55554V9.72327H78.9928ZM78.8936 9.72327V9.46673H78.9432V9.72327H78.8936ZM78.8687 9.72327H78.8141V9.66407H78.7149V9.72327H78.6603L78.7546 9.46673H78.7893L78.8886 9.72327H78.8687ZM78.7744 9.6246L78.7397 9.52594L78.7099 9.6246H78.7744ZM78.3972 9.72327V9.46673H78.5014H78.556C78.556 9.46673 78.5808 9.46673 78.5858 9.4914C78.5908 9.50409 78.5908 9.51818 78.5858 9.53087C78.5916 9.54511 78.5916 9.56103 78.5858 9.57527C78.5805 9.58342 78.5731 9.59 78.5644 9.59434C78.5556 9.59868 78.5459 9.60061 78.5362 9.59994L78.5659 9.6246L78.5908 9.66407L78.6205 9.7134H78.561L78.5262 9.65914L78.5014 9.61967H78.4667V9.7282L78.3972 9.72327ZM78.4468 9.57527H78.5262C78.5293 9.56733 78.5293 9.55854 78.5262 9.5506H78.4518V9.61474L78.4468 9.57527ZM78.2383 9.72327V9.51113H78.1639V9.46673H78.3624V9.51113H78.2929V9.72327H78.2383ZM80.6012 6.49683L81.2167 6.68923L81.8323 6.88657L81.2167 7.0839L80.6012 7.28124L79.9857 7.0839L79.9013 7.0543L79.8467 7.1579C79.8299 7.19397 79.8182 7.23215 79.8119 7.27137C79.8119 7.30591 79.8119 7.34044 79.8119 7.36511C79.8312 7.37614 79.8472 7.39194 79.8585 7.41095C79.8698 7.42997 79.876 7.45156 79.8764 7.47364C79.8768 7.49339 79.8719 7.51288 79.8623 7.53018C79.8527 7.54749 79.8388 7.56201 79.8218 7.57231L79.8715 8.06565H79.6084L79.663 7.57231C79.6464 7.56166 79.6327 7.54707 79.6231 7.52984C79.6136 7.51261 79.6085 7.4933 79.6084 7.47364C79.6087 7.44901 79.6164 7.42503 79.6306 7.40481C79.6448 7.38459 79.6647 7.36904 79.6878 7.36017C79.6828 7.32747 79.6828 7.29421 79.6878 7.2615C79.6925 7.21771 79.7025 7.17463 79.7176 7.13324C79.7312 7.09738 79.7478 7.06273 79.7672 7.02963V7.00497L79.3751 6.8767L79.9857 6.67936L80.6012 6.48696V6.49683ZM80.6012 7.32564L80.2736 7.22204L79.941 7.11844V7.53284C79.941 7.65124 80.2388 7.74498 80.6062 7.74498C80.9735 7.74498 81.2713 7.65124 81.2713 7.53284V7.11844L80.9387 7.22204L80.6062 7.32564H80.6012ZM81.1274 8.26299H81.182V8.16432H81.2713V8.11498H81.2118V7.84858H81.1671L80.9636 8.11498V8.16432H81.1572V8.28765L81.1274 8.26299ZM81.1274 8.11498V7.93245L80.9884 8.11498H81.1274ZM80.631 8.16432C80.632 8.17944 80.636 8.19422 80.6428 8.20778C80.6496 8.22134 80.6591 8.2334 80.6707 8.24325C80.6955 8.26002 80.7251 8.26865 80.7551 8.26792C80.785 8.26803 80.8144 8.25946 80.8395 8.24325C80.8653 8.22733 80.8846 8.20288 80.8941 8.17418C80.9028 8.13186 80.9028 8.08824 80.8941 8.04592C80.9035 8.00868 80.9035 7.96969 80.8941 7.93245C80.8844 7.90515 80.8649 7.88234 80.8395 7.86831C80.8135 7.86091 80.786 7.86091 80.76 7.86831C80.7238 7.86697 80.6883 7.8793 80.6608 7.90285C80.6345 7.93096 80.6203 7.96811 80.621 8.00645C80.6208 8.02469 80.6242 8.04279 80.631 8.05973C80.6378 8.07666 80.6479 8.09209 80.6608 8.10512C80.6732 8.11709 80.688 8.12635 80.7042 8.1323C80.7205 8.13824 80.7378 8.14075 80.7551 8.13965C80.7747 8.14409 80.795 8.14409 80.8146 8.13965C80.8337 8.13198 80.8494 8.11805 80.8593 8.10018C80.8621 8.12147 80.8621 8.14303 80.8593 8.16432C80.8621 8.18065 80.8621 8.19732 80.8593 8.21365C80.8563 8.21954 80.8521 8.22476 80.847 8.22899C80.8418 8.23323 80.8359 8.2364 80.8295 8.23832C80.8151 8.2432 80.7994 8.2432 80.7849 8.23832C80.7687 8.24326 80.7514 8.24326 80.7352 8.23832C80.7231 8.22224 80.7146 8.20372 80.7104 8.18405L80.631 8.16432ZM80.8544 7.98178C80.8613 7.95927 80.8613 7.93522 80.8544 7.91271C80.8349 7.90696 80.8142 7.90696 80.7948 7.91271C80.7825 7.91233 80.7702 7.9148 80.759 7.91994C80.7478 7.92508 80.738 7.93274 80.7303 7.94231C80.7205 7.95096 80.7128 7.96163 80.7076 7.97356C80.7025 7.9855 80.7001 7.99841 80.7005 8.01138C80.6997 8.02369 80.702 8.03601 80.7072 8.04721C80.7124 8.05841 80.7203 8.06814 80.7303 8.07552C80.7371 8.08446 80.7463 8.09145 80.7567 8.09578C80.7672 8.10011 80.7786 8.10163 80.7898 8.10018C80.8018 8.10156 80.8139 8.10004 80.8251 8.09574C80.8364 8.09145 80.8464 8.08451 80.8544 8.07552C80.8627 8.05324 80.8627 8.02872 80.8544 8.00645V7.98178ZM80.2835 8.16432C80.2873 8.19435 80.3013 8.22219 80.3232 8.24325C80.3483 8.25946 80.3776 8.26803 80.4076 8.26792C80.4391 8.26789 80.47 8.25937 80.4969 8.24325C80.5216 8.22603 80.5405 8.20202 80.5516 8.17418C80.5576 8.13164 80.5576 8.08846 80.5516 8.04592C80.5581 8.00838 80.5581 7.96999 80.5516 7.93245C80.5405 7.90595 80.5214 7.88354 80.4969 7.86831C80.471 7.86091 80.4435 7.86091 80.4175 7.86831C80.3995 7.86712 80.3814 7.86956 80.3643 7.8755C80.3473 7.88143 80.3316 7.89073 80.3182 7.90285C80.3042 7.91606 80.2934 7.93223 80.2865 7.95016C80.2797 7.96809 80.2769 7.98733 80.2785 8.00645C80.2773 8.02437 80.2798 8.04235 80.2858 8.05931C80.2917 8.07627 80.3011 8.09185 80.3133 8.10512C80.3259 8.11685 80.3407 8.12595 80.3569 8.13188C80.3731 8.13781 80.3903 8.14046 80.4076 8.13965C80.427 8.14541 80.4477 8.14541 80.4672 8.13965C80.4862 8.13198 80.5019 8.11805 80.5118 8.10018C80.5145 8.12148 80.5145 8.14302 80.5118 8.16432C80.5127 8.18075 80.5127 8.19722 80.5118 8.21365L80.4821 8.23832C80.4675 8.24257 80.452 8.24257 80.4374 8.23832C80.4213 8.24396 80.4038 8.24396 80.3877 8.23832C80.3737 8.22339 80.365 8.20434 80.3629 8.18405L80.2835 8.16432ZM80.5069 7.98178C80.5076 7.9692 80.5058 7.9566 80.5015 7.94473C80.4973 7.93287 80.4907 7.92198 80.4821 7.91271C80.4629 7.90552 80.4417 7.90552 80.4225 7.91271C80.4103 7.913 80.3982 7.91577 80.3871 7.92086C80.376 7.92595 80.3661 7.93325 80.358 7.94231C80.3504 7.96472 80.3504 7.98897 80.358 8.01138C80.3494 8.03192 80.3494 8.05498 80.358 8.07552C80.3659 8.08451 80.3759 8.09145 80.3872 8.09574C80.3984 8.10004 80.4105 8.10156 80.4225 8.10018C80.4337 8.10163 80.4451 8.10011 80.4556 8.09578C80.4661 8.09145 80.4752 8.08446 80.4821 8.07552C80.4915 8.06686 80.4987 8.05605 80.503 8.04402C80.5073 8.03199 80.5087 8.0191 80.5069 8.00645V7.98178ZM80.1346 8.26299V7.84858H80.0998L80.0551 7.90285C80.0295 7.92322 80.0011 7.93984 79.9708 7.95218V8.00151C79.9916 7.99365 80.0115 7.98374 80.0303 7.97191C80.0494 7.96448 80.0664 7.95264 80.08 7.93738V8.28765L80.1346 8.26299ZM82.6166 9.077H82.7606V6.19096H82.969V9.077H83.0882V9.27433H82.6216V9.077H82.6166ZM78.149 9.077H78.2929V6.19096H78.4964V9.077H78.6205V9.27433H78.149V9.077ZM80.492 6.47709V6.19096H80.6955V6.47709L80.5962 6.44256L80.492 6.47709ZM81.4848 8.39619H81.6536V8.88953C81.649 8.94041 81.649 8.99158 81.6536 9.04246C81.6551 9.05923 81.6603 9.07545 81.6689 9.08995C81.6775 9.10446 81.6892 9.11688 81.7032 9.12633C81.7338 9.15139 81.7729 9.16376 81.8124 9.16086C81.8512 9.16378 81.8897 9.15333 81.9216 9.13126C81.9457 9.11123 81.9616 9.08316 81.9663 9.05233C81.9703 9.00143 81.9703 8.95029 81.9663 8.89939V8.40605H82.1351V8.89939C82.1391 8.97663 82.1391 9.05402 82.1351 9.13126C82.1261 9.17133 82.1073 9.20859 82.0805 9.2398C82.0553 9.27349 82.0208 9.29919 81.9812 9.3138C81.9312 9.33542 81.8769 9.34554 81.8223 9.3434C81.7597 9.34707 81.697 9.33697 81.6387 9.3138C81.5997 9.29578 81.5656 9.26871 81.5394 9.23486C81.5161 9.20578 81.4992 9.17217 81.4898 9.1362C81.4832 9.06069 81.4832 8.98477 81.4898 8.90926V8.41592L81.4848 8.39619ZM80.7749 9.27433V8.39619H81.3557V8.54419H80.9437V8.78099H81.3011V8.92899H80.9437V9.27433H80.7749ZM80.6806 9.27433H80.4969L80.4225 9.07206H80.0849L80.0154 9.27433H79.8318L80.1594 8.38139H80.3431L80.6757 9.27433H80.6806ZM80.3679 8.91913L80.2487 8.58859L80.1346 8.91913H80.3679ZM79.0673 9.27433V8.39619H79.2361V8.78099L79.5836 8.38632H79.8119L79.4942 8.73166L79.8318 9.27926H79.6084L79.3751 8.85993L79.2361 9.00793V9.27433H79.0673ZM81.9663 8.15445V6.18109H82.1748V8.15445H81.9663ZM81.2416 6.63003L81.45 6.6991V6.19096H81.2416V6.64483V6.63003ZM79.8069 6.6843L79.9757 6.63003H80.0105V6.18602H79.7821V6.67936L79.8069 6.6843ZM79.0524 8.16432V6.19096H79.2559V8.16432H79.0524ZM80.621 4.71094L82.0209 5.20428L83.4208 5.69762H77.7965L79.1964 5.20428L80.621 4.71094Z" fill="white"/>
<path fill-rule="evenodd" clip-rule="evenodd" d="M78.6602 11.1537L78.7694 10.9663L78.4269 11.0649H78.3822H78.3524C78.3524 11.0649 78.3226 11.0403 78.3226 11.0255C78.3191 11.0195 78.3173 11.0126 78.3173 11.0057C78.3173 10.9988 78.3191 10.992 78.3226 10.986C78.3274 10.9766 78.3345 10.9686 78.3431 10.9626C78.3518 10.9565 78.3618 10.9527 78.3723 10.9514L78.5758 10.9021L78.551 10.5962C78.5487 10.5782 78.5487 10.56 78.551 10.542C78.5488 10.5289 78.5488 10.5156 78.551 10.5025C78.5622 10.4984 78.5745 10.4984 78.5857 10.5025C78.6002 10.4976 78.6159 10.4976 78.6304 10.5025L78.6651 10.537C78.6651 10.537 78.6651 10.5617 78.6651 10.5765V10.616V10.8873L78.8041 10.8528L78.8687 10.7393C78.8727 10.7298 78.8788 10.7214 78.8865 10.7146C78.8943 10.7077 78.9034 10.7027 78.9134 10.6998C78.9211 10.6963 78.9296 10.6945 78.9382 10.6945C78.9467 10.6945 78.9552 10.6963 78.963 10.6998V10.7245C78.9651 10.7343 78.9651 10.7444 78.963 10.7541C78.9656 10.7621 78.9656 10.7708 78.963 10.7788C78.9652 10.7935 78.9652 10.8085 78.963 10.8232L78.7346 11.2228C78.7346 11.2228 78.7098 11.2573 78.69 11.2623C78.6822 11.2658 78.6737 11.2676 78.6651 11.2676C78.6566 11.2676 78.6481 11.2658 78.6403 11.2623C78.6264 11.2526 78.616 11.2388 78.6105 11.2228C78.6064 11.2135 78.6043 11.2034 78.6043 11.1932C78.6043 11.183 78.6064 11.1729 78.6105 11.1636L78.6602 11.1537ZM78.0645 10.167C78.0651 10.1555 78.0651 10.144 78.0645 10.1325C78.0659 10.1227 78.0659 10.1127 78.0645 10.1029C78.0645 10.1029 78.0645 10.1029 78.0645 10.0782C78.0499 10.074 78.0344 10.074 78.0198 10.0782C78.0137 10.0752 78.0069 10.0736 78 10.0736C77.9931 10.0736 77.9863 10.0752 77.9801 10.0782C77.9653 10.097 77.9551 10.119 77.9503 10.1424L77.8113 10.5469V10.5962C77.8113 10.5962 77.8113 10.5962 77.8113 10.6357C77.8092 10.6488 77.8092 10.6621 77.8113 10.6752V10.7097C77.8244 10.7124 77.8379 10.7124 77.851 10.7097H77.8908H77.9305H77.9702L78.3574 10.5074H78.3921C78.3956 10.5006 78.3974 10.493 78.3974 10.4852C78.3974 10.4775 78.3956 10.4699 78.3921 10.463C78.3909 10.4482 78.3841 10.4344 78.373 10.4243C78.362 10.4143 78.3475 10.4087 78.3326 10.4088L78.268 10.4384L78.1936 10.4778L78 10.315L78.0298 10.2361L78.0645 10.167ZM78.1439 10.4581L77.9057 10.5962L78 10.3397L78.1439 10.4581ZM77.7815 9.96477H77.2851L77.4589 10.1818C77.4589 10.1818 77.4589 10.2114 77.4589 10.2213C77.4612 10.2268 77.4624 10.2326 77.4624 10.2386C77.4624 10.2445 77.4612 10.2504 77.4589 10.2558H77.4241C77.4112 10.2597 77.3974 10.2597 77.3844 10.2558L77.166 9.97957C77.1362 9.9401 77.1362 9.9105 77.166 9.88584C77.1785 9.87388 77.1939 9.86538 77.2107 9.86117H77.3H77.7667L77.5631 9.60463C77.5573 9.59039 77.5573 9.57447 77.5631 9.56023C77.5609 9.55561 77.5598 9.55055 77.5598 9.54543C77.5598 9.54031 77.5609 9.53526 77.5631 9.53063C77.5684 9.5276 77.5744 9.526 77.5805 9.526C77.5866 9.526 77.5926 9.5276 77.5979 9.53063C77.5979 9.53063 77.6227 9.53063 77.6376 9.5553L77.8858 9.87104C77.8935 9.89002 77.8935 9.91125 77.8858 9.93024C77.8889 9.93722 77.8906 9.94478 77.8906 9.95244C77.8906 9.96009 77.8889 9.96765 77.8858 9.97464H77.7964L77.7815 9.96477ZM77.2454 9.01262L77.1908 9.07676L77.3 9.27409H77.3844H77.4539C77.4688 9.27941 77.4811 9.28994 77.4887 9.30369C77.4936 9.31809 77.4936 9.3337 77.4887 9.34809C77.4887 9.34809 77.4887 9.3777 77.4639 9.38263H77.4241L76.9923 9.42703H76.898C76.8867 9.43079 76.8745 9.43079 76.8632 9.42703C76.8509 9.41774 76.8408 9.40597 76.8334 9.3925C76.8311 9.37779 76.8311 9.3628 76.8334 9.34809C76.8313 9.33668 76.8313 9.32497 76.8334 9.31356V9.28396L76.8682 9.24449L77.1511 8.91396C77.1646 8.89611 77.1815 8.88103 77.2008 8.86956C77.2077 8.86609 77.2153 8.86428 77.2231 8.86428C77.2309 8.86428 77.2385 8.86609 77.2454 8.86956C77.253 8.8717 77.2601 8.87545 77.2661 8.88056C77.2721 8.88567 77.2769 8.89202 77.2802 8.89916C77.2814 8.90733 77.2814 8.91565 77.2802 8.92382C77.2807 8.93204 77.2807 8.94027 77.2802 8.94849L77.2554 8.97809L77.2454 9.01262ZM77.2107 9.31356L77.1213 9.14583L76.9377 9.34809L77.2107 9.31356ZM76.615 8.71169L76.8285 8.65249L76.5108 8.48968C76.5108 8.48968 76.481 8.48968 76.476 8.48968C76.4726 8.48011 76.4726 8.46966 76.476 8.46008C76.4725 8.4532 76.4707 8.44559 76.4707 8.43788C76.4707 8.43017 76.4725 8.42257 76.476 8.41568C76.4772 8.40871 76.4808 8.4024 76.4863 8.39787C76.4918 8.39335 76.4987 8.39092 76.5058 8.39102C76.515 8.38626 76.5252 8.38378 76.5356 8.38378C76.5459 8.38378 76.5562 8.38626 76.5654 8.39102L76.749 8.49955L76.9426 8.25781L76.9823 8.21835H77.0121C77.0249 8.21339 77.0391 8.21339 77.0518 8.21835C77.0594 8.22241 77.0659 8.22804 77.0711 8.23485C77.0762 8.24166 77.0798 8.24949 77.0816 8.25781C77.0865 8.27221 77.0865 8.28782 77.0816 8.30222C77.0842 8.31359 77.0842 8.32538 77.0816 8.33675L77.0518 8.36635L76.8731 8.57355L76.9972 8.64262L77.1213 8.60809C77.1305 8.60333 77.1407 8.60085 77.1511 8.60085C77.1615 8.60085 77.1717 8.60333 77.1809 8.60809C77.1896 8.61121 77.1973 8.61647 77.2034 8.62337C77.2095 8.63027 77.2137 8.63859 77.2156 8.64755V8.67715C77.2175 8.68693 77.2175 8.69698 77.2156 8.70675H77.171L76.7242 8.83502H76.6646C76.6571 8.83096 76.6506 8.82533 76.6454 8.81852C76.6403 8.81171 76.6367 8.80387 76.6349 8.79555C76.6309 8.78792 76.6289 8.77946 76.6289 8.77089C76.6289 8.76231 76.6309 8.75386 76.6349 8.74622C76.6474 8.72985 76.6647 8.71778 76.6845 8.71169H76.615ZM76.4462 7.88288H76.6249V7.61154H76.4462C76.4271 7.61922 76.4058 7.61922 76.3867 7.61154C76.3832 7.60465 76.3813 7.59705 76.3813 7.58934C76.3813 7.58163 76.3832 7.57402 76.3867 7.56714C76.3823 7.55964 76.38 7.55113 76.38 7.54247C76.38 7.53381 76.3823 7.5253 76.3867 7.5178C76.4043 7.51139 76.4236 7.51139 76.4413 7.5178L76.9377 7.47834C76.9674 7.47834 76.9873 7.47834 76.9972 7.47834C77.0043 7.48238 77.0103 7.48809 77.0146 7.49498C77.019 7.50186 77.0215 7.5097 77.0221 7.5178C77.027 7.53388 77.027 7.55107 77.0221 7.56714C77.0043 7.5728 76.9852 7.5728 76.9674 7.56714H76.754V7.83354H76.9625C76.9816 7.82586 77.0029 7.82586 77.0221 7.83354C77.0251 7.83967 77.0267 7.84643 77.0267 7.85328C77.0267 7.86012 77.0251 7.86688 77.0221 7.87301C77.0264 7.88051 77.0287 7.88902 77.0287 7.89768C77.0287 7.90634 77.0264 7.91484 77.0221 7.92234C77.0044 7.92876 76.9851 7.92876 76.9674 7.92234L76.471 7.96181C76.4626 7.96614 76.4532 7.96839 76.4437 7.96839C76.4342 7.96839 76.4249 7.96614 76.4164 7.96181C76.409 7.95698 76.4028 7.95041 76.3985 7.94267C76.3942 7.93493 76.3918 7.92626 76.3916 7.91741C76.3866 7.90134 76.3866 7.88415 76.3916 7.86808C76.4092 7.86166 76.4286 7.86166 76.4462 7.86808V7.88288ZM77.0518 6.47192H76.9674L76.9128 6.71859L76.9823 6.76299L77.0369 6.80739C77.0419 6.82008 77.0419 6.83417 77.0369 6.84686C77.0315 6.86284 77.0211 6.87667 77.0072 6.88633C76.9944 6.89128 76.9802 6.89128 76.9674 6.88633H76.9327L76.5753 6.64459L76.5356 6.61993L76.5008 6.59033C76.4983 6.57896 76.4983 6.56716 76.5008 6.55579C76.4959 6.54139 76.4959 6.52579 76.5008 6.51139C76.4982 6.49837 76.4982 6.48495 76.5008 6.47192H76.5306H76.5703H76.62L77.0469 6.40286C77.0698 6.39846 77.0934 6.39846 77.1164 6.40286C77.1317 6.40746 77.1448 6.41759 77.1531 6.43127C77.1614 6.44496 77.1642 6.46121 77.161 6.47686C77.1515 6.4807 77.1408 6.4807 77.1313 6.47686L77.0518 6.47192ZM76.8285 6.67913L76.8682 6.49659L76.5951 6.53112L76.8285 6.67913ZM77.2206 5.94898L76.8235 5.86018L77.2057 6.05258C77.2236 6.06008 77.2379 6.07425 77.2454 6.09205C77.2503 6.10645 77.2503 6.12206 77.2454 6.13645C77.2379 6.15021 77.2255 6.16074 77.2107 6.16605C77.1928 6.17044 77.174 6.17044 77.1561 6.16605L76.7143 5.94405C76.7143 5.94405 76.6746 5.91445 76.6746 5.89965C76.6688 5.88034 76.6688 5.85976 76.6746 5.84045V5.80591C76.6805 5.79023 76.6909 5.77654 76.7044 5.76645C76.7044 5.76645 76.7044 5.76645 76.7341 5.76645H76.8036L77.1511 5.84045L76.888 5.60858C76.8735 5.59676 76.8602 5.58354 76.8483 5.56911C76.8457 5.56373 76.8443 5.55783 76.8443 5.55184C76.8443 5.54586 76.8457 5.53996 76.8483 5.53458C76.8454 5.51992 76.8454 5.50483 76.8483 5.49018V5.45564C76.8515 5.44592 76.8567 5.43695 76.8635 5.42931C76.8703 5.42167 76.8787 5.41552 76.888 5.41124C76.8969 5.40551 76.9072 5.40246 76.9178 5.40246C76.9284 5.40246 76.9387 5.40551 76.9476 5.41124L77.3844 5.63325C77.3844 5.63325 77.4192 5.63325 77.4241 5.66778C77.4291 5.70231 77.4241 5.69738 77.4241 5.71711C77.4241 5.73685 77.4241 5.74178 77.3894 5.74178C77.3809 5.74611 77.3716 5.74837 77.3621 5.74837C77.3526 5.74837 77.3432 5.74611 77.3348 5.74178L76.9476 5.54938L77.2603 5.81578L77.3 5.85525C77.3017 5.8667 77.3017 5.87833 77.3 5.88978C77.305 5.90586 77.305 5.92304 77.3 5.93912C77.3 5.93912 77.3 5.96378 77.2752 5.96872H77.2405H77.166L77.2206 5.94898ZM77.439 4.8143C77.4433 4.79981 77.4433 4.7844 77.439 4.7699C77.4417 4.76452 77.443 4.75862 77.443 4.75263C77.443 4.74665 77.4417 4.74075 77.439 4.73537H77.4043C77.3888 4.74191 77.3752 4.75207 77.3646 4.76497L77.161 5.02644C77.161 5.02644 77.161 5.0511 77.161 5.06591C77.1587 5.07137 77.1575 5.07724 77.1575 5.08317C77.1575 5.0891 77.1587 5.09497 77.161 5.10044L77.1908 5.13497L77.5582 5.42111C77.5777 5.42612 77.5982 5.42612 77.6177 5.42111C77.628 5.41913 77.6377 5.41504 77.6463 5.40909C77.6548 5.40314 77.662 5.39547 77.6674 5.38658L77.8808 5.11524C77.8851 5.10074 77.8851 5.08533 77.8808 5.07084C77.8847 5.06134 77.8847 5.05073 77.8808 5.04124C77.8681 5.03628 77.8539 5.03628 77.8411 5.04124C77.8273 5.04812 77.8153 5.05829 77.8064 5.07084L77.6227 5.30271L77.4837 5.19417L77.6426 4.98697C77.6471 4.9742 77.6471 4.96027 77.6426 4.9475C77.6451 4.93613 77.6451 4.92434 77.6426 4.91297C77.6314 4.90881 77.619 4.90881 77.6078 4.91297C77.5926 4.91754 77.5789 4.92605 77.5681 4.93764L77.4092 5.14484L77.2901 5.0511L77.4639 4.8291L77.439 4.8143ZM77.9851 4.6219L77.9503 4.6515L78.0844 4.80443C78.0901 4.82208 78.0901 4.84106 78.0844 4.8587C78.0878 4.87331 78.0878 4.88849 78.0844 4.9031C78.0682 4.90805 78.0509 4.90805 78.0347 4.9031C78.0156 4.89567 77.9986 4.88383 77.9851 4.86857L77.6723 4.51336C77.6633 4.50653 77.6563 4.49746 77.6519 4.48707C77.6476 4.47668 77.6461 4.46533 77.6475 4.45416C77.6486 4.4443 77.6519 4.43478 77.657 4.42627C77.6621 4.41775 77.6691 4.41044 77.6773 4.40483L77.8312 4.26669L77.8908 4.22229H77.9404C77.9616 4.21726 77.9837 4.21726 78.0049 4.22229C78.0245 4.21785 78.0449 4.21785 78.0645 4.22229C78.0844 4.23286 78.1015 4.2481 78.1141 4.26669C78.1421 4.2961 78.158 4.33479 78.1588 4.37523C78.1546 4.41876 78.1373 4.46003 78.1092 4.49363C78.1354 4.48869 78.1624 4.48869 78.1886 4.49363H78.2829L78.3574 4.52323H78.3971C78.3994 4.53296 78.3994 4.5431 78.3971 4.55283C78.3916 4.55514 78.3857 4.55633 78.3797 4.55633C78.3737 4.55633 78.3678 4.55514 78.3623 4.55283H78.2928H78.2432L78.1489 4.52323C78.1209 4.51972 78.0925 4.51972 78.0645 4.52323H78.0099C77.9929 4.52959 77.9776 4.53971 77.9652 4.55283L77.9851 4.6219ZM77.8659 4.38016L77.7766 4.4591L77.8908 4.58737L77.9751 4.51336C77.996 4.49619 78.0143 4.47627 78.0298 4.45416C78.0342 4.43801 78.0342 4.42098 78.0298 4.40483C78.033 4.39701 78.0347 4.38863 78.0347 4.38016C78.0347 4.3717 78.033 4.36331 78.0298 4.3555C78.0235 4.35278 78.0167 4.35138 78.0099 4.35138C78.0031 4.35138 77.9963 4.35278 77.99 4.3555H77.9404C77.914 4.36687 77.8903 4.38369 77.8709 4.40483L77.8659 4.38016ZM78.5609 4.42456C78.5724 4.44303 78.5899 4.45698 78.6105 4.46403C78.6175 4.4675 78.6251 4.46931 78.6329 4.46931C78.6406 4.46931 78.6483 4.4675 78.6552 4.46403C78.6627 4.45997 78.6693 4.45434 78.6745 4.44753C78.6796 4.44072 78.6832 4.43288 78.685 4.42456C78.6891 4.41523 78.6912 4.40515 78.6912 4.39496C78.6912 4.38478 78.6891 4.3747 78.685 4.36536L78.4169 3.95589C78.406 3.93886 78.3906 3.92519 78.3723 3.91642C78.3562 3.91115 78.3388 3.91115 78.3226 3.91642C78.3087 3.92608 78.2983 3.93991 78.2928 3.95589C78.2864 3.97511 78.2864 3.99588 78.2928 4.01509L78.5559 4.42456H78.5609ZM79.3105 3.89176C79.3162 3.91276 79.3162 3.93489 79.3105 3.95589C79.3147 3.98203 79.3147 4.00868 79.3105 4.03482C79.2997 4.06578 79.2828 4.09429 79.2608 4.11869C79.2332 4.1451 79.2013 4.16677 79.1665 4.18283L79.0772 4.21243H79.0027C78.9749 4.20946 78.9479 4.20108 78.9233 4.18776C78.9001 4.17754 78.8784 4.16426 78.8587 4.14829L78.7892 4.08909C78.7708 4.06673 78.7557 4.04179 78.7446 4.01509C78.7236 3.97334 78.7102 3.92825 78.7049 3.88189C78.7001 3.84256 78.7001 3.80281 78.7049 3.76349C78.7199 3.72795 78.7399 3.69472 78.7644 3.66482C78.7946 3.63785 78.8279 3.61466 78.8637 3.59575C78.9076 3.58402 78.9538 3.58402 78.9977 3.59575C79.0379 3.5942 79.0776 3.6045 79.1119 3.62535C79.1387 3.63844 79.1612 3.65901 79.1764 3.68455C79.1814 3.69895 79.1814 3.71456 79.1764 3.72895C79.1764 3.72895 79.1764 3.72895 79.1516 3.75855H79.1119H79.0722C79.0485 3.74057 79.0215 3.72718 78.9928 3.71909C78.9654 3.70969 78.9357 3.70969 78.9084 3.71909C78.8855 3.72674 78.8651 3.74042 78.8493 3.75865C78.8336 3.77689 78.8231 3.79902 78.819 3.82269C78.7985 3.87844 78.7985 3.9396 78.819 3.99536C78.8386 4.0306 78.8619 4.06368 78.8885 4.09403C78.911 4.1168 78.9409 4.1308 78.9729 4.13349C79.0019 4.14291 79.0332 4.14291 79.0623 4.13349C79.0928 4.12209 79.1188 4.10136 79.1367 4.07429C79.147 4.04219 79.147 4.00772 79.1367 3.97562C79.1343 3.96092 79.1343 3.94593 79.1367 3.93122C79.1367 3.93122 79.1367 3.93122 79.1616 3.90162H79.2857C79.2927 3.90374 79.2991 3.90755 79.3043 3.91272C79.3095 3.91788 79.3133 3.92424 79.3154 3.93122L79.3105 3.89176ZM79.9707 3.84736L79.9211 3.77829L79.6778 3.83749V3.92136C79.6818 3.94421 79.6818 3.96757 79.6778 3.99042C79.6674 4.00243 79.6535 4.01102 79.6381 4.01509C79.6236 4.01964 79.608 4.01964 79.5934 4.01509C79.5934 4.01509 79.5934 4.01509 79.5934 3.98056C79.5934 3.94602 79.5934 3.98056 79.5934 3.95589C79.5913 3.94282 79.5913 3.92949 79.5934 3.91642L79.653 3.48722V3.43295C79.6553 3.41824 79.6553 3.40326 79.653 3.38855V3.35895H79.6927H79.7374L79.7821 3.35402C79.7821 3.35402 79.7821 3.35402 79.8069 3.35402L79.8367 3.39842L80.0849 3.74869C80.0998 3.76631 80.1115 3.78633 80.1196 3.80789C80.1245 3.82228 80.1245 3.83789 80.1196 3.85229C80.1099 3.86612 80.096 3.87649 80.0799 3.88189H80.0551V3.85229L79.9707 3.84736ZM79.6877 3.73882L79.8664 3.69442L79.7175 3.46748L79.6877 3.73882ZM80.4572 3.31455L80.7103 3.67469V3.30468C80.7046 3.28704 80.7046 3.26806 80.7103 3.25041C80.7166 3.2477 80.7234 3.2463 80.7302 3.2463C80.737 3.2463 80.7438 3.2477 80.75 3.25041C80.7644 3.24465 80.7804 3.24465 80.7947 3.25041C80.8012 3.26793 80.8012 3.28716 80.7947 3.30468V3.79802C80.7947 3.85229 80.7947 3.88189 80.7302 3.88189H80.7004C80.6922 3.88362 80.6838 3.88362 80.6756 3.88189L80.4274 3.52668V3.89176C80.4325 3.90949 80.4325 3.92829 80.4274 3.94602C80.4127 3.94958 80.3974 3.94958 80.3827 3.94602C80.3765 3.94907 80.3697 3.95065 80.3628 3.95065C80.356 3.95065 80.3492 3.94907 80.343 3.94602C80.3386 3.93763 80.3364 3.92833 80.3364 3.91889C80.3364 3.90945 80.3386 3.90015 80.343 3.89176V3.39842C80.3397 3.38214 80.3397 3.36536 80.343 3.34908C80.3483 3.33575 80.3569 3.3239 80.3678 3.31455H80.4125C80.4163 3.31238 80.4205 3.31124 80.4249 3.31124C80.4293 3.31124 80.4335 3.31238 80.4373 3.31455V3.34415L80.4572 3.31455ZM81.9017 3.54148L81.6585 3.47735L81.6188 3.63029L81.8173 3.68455C81.8302 3.68004 81.8442 3.68004 81.857 3.68455C81.862 3.69724 81.862 3.71133 81.857 3.72402C81.8488 3.72575 81.8404 3.72575 81.8322 3.72402C81.8322 3.72402 81.8322 3.72402 81.7875 3.72402L81.589 3.66482L81.5344 3.86216C81.5344 3.86216 81.5344 3.90656 81.4996 3.91149C81.4918 3.91504 81.4834 3.91687 81.4748 3.91687C81.4662 3.91687 81.4578 3.91504 81.45 3.91149C81.4339 3.90609 81.42 3.89572 81.4103 3.88189C81.4052 3.86081 81.4052 3.83884 81.4103 3.81775L81.5393 3.35895C81.5367 3.34593 81.5367 3.3325 81.5393 3.31948C81.549 3.3161 81.5595 3.3161 81.5691 3.31948C81.5836 3.31459 81.5993 3.31459 81.6138 3.31948L81.9017 3.40335C81.9017 3.40335 81.9365 3.40335 81.9414 3.40335C81.9441 3.40873 81.9454 3.41463 81.9454 3.42062C81.9454 3.4266 81.9441 3.4325 81.9414 3.43788C81.9414 3.43788 81.9414 3.43788 81.9414 3.46748C81.9346 3.47138 81.9269 3.47343 81.9191 3.47343C81.9112 3.47343 81.9035 3.47138 81.8967 3.46748L81.9017 3.54148ZM82.269 3.97069H82.2293L82.14 4.14336C82.1368 4.15309 82.1316 4.16205 82.1248 4.16969C82.118 4.17734 82.1096 4.18349 82.1003 4.18776C82.0925 4.19131 82.084 4.19314 82.0754 4.19314C82.0669 4.19314 82.0584 4.19131 82.0506 4.18776C82.0424 4.18399 82.035 4.17852 82.029 4.17172C82.023 4.16492 82.0185 4.15693 82.0159 4.14829C82.0091 4.12914 82.0091 4.10824 82.0159 4.08909L82.2343 3.66482C82.2373 3.65423 82.243 3.64459 82.2508 3.63681C82.2586 3.62904 82.2683 3.62339 82.279 3.62042C82.2883 3.61603 82.2985 3.61375 82.3088 3.61375C82.3191 3.61375 82.3292 3.61603 82.3385 3.62042L82.5222 3.71415L82.5867 3.74869L82.6265 3.78322C82.6405 3.79931 82.6508 3.81822 82.6568 3.83865C82.6628 3.85909 82.6643 3.88056 82.6612 3.90162C82.6663 3.9227 82.6663 3.94467 82.6612 3.96576C82.6524 3.98417 82.6399 4.00064 82.6246 4.0142C82.6092 4.02776 82.5913 4.03812 82.5718 4.04469C82.5302 4.05977 82.4845 4.05977 82.4428 4.04469C82.4586 4.06662 82.4688 4.09201 82.4726 4.11869C82.4773 4.14976 82.4773 4.18136 82.4726 4.21243C82.4749 4.23869 82.4749 4.2651 82.4726 4.29136C82.4736 4.30614 82.4736 4.32098 82.4726 4.33576H82.4428H82.413C82.4066 4.33385 82.4007 4.33068 82.3956 4.32644C82.3905 4.3222 82.3863 4.31698 82.3832 4.31109C82.3811 4.30134 82.3811 4.29125 82.3832 4.28149C82.3832 4.28149 82.3832 4.25189 82.3832 4.22723V4.12856C82.3832 4.09403 82.3832 4.06442 82.3832 4.04469C82.3801 4.02614 82.3715 4.00896 82.3584 3.99536L82.2641 3.97069H82.269ZM82.4527 3.76842L82.3485 3.71415L82.2641 3.84736L82.3683 3.89669L82.4378 3.92629C82.4556 3.93294 82.4753 3.93255 82.4929 3.92521C82.5104 3.91787 82.5245 3.90413 82.5321 3.88682C82.5368 3.87071 82.5368 3.8536 82.5321 3.83749C82.5348 3.82447 82.5348 3.81104 82.5321 3.79802C82.5112 3.77641 82.4858 3.75958 82.4577 3.74869L82.4527 3.76842ZM83.2817 4.30616C83.2963 4.31041 83.3118 4.31041 83.3264 4.30616H83.3611C83.3661 4.29347 83.3661 4.27938 83.3611 4.26669C83.3593 4.25899 83.3557 4.25182 83.3505 4.24581C83.3453 4.2398 83.3387 4.23512 83.3313 4.23216L83.0683 4.02989C83.0553 4.02605 83.0415 4.02605 83.0285 4.02989H82.9938C82.9815 4.0371 82.9713 4.04728 82.964 4.05949L82.6761 4.4295C82.6692 4.44693 82.6692 4.46633 82.6761 4.48376C82.6822 4.50481 82.6942 4.52365 82.7108 4.53803L82.9839 4.74523C82.9907 4.74913 82.9984 4.75118 83.0062 4.75118C83.014 4.75118 83.0217 4.74913 83.0285 4.74523C83.034 4.74754 83.0399 4.74873 83.0459 4.74873C83.0519 4.74873 83.0578 4.74754 83.0633 4.74523C83.0678 4.73247 83.0678 4.71854 83.0633 4.70577C83.0567 4.69042 83.0465 4.67688 83.0335 4.6663L82.8052 4.4887L82.9094 4.35056L83.1179 4.50843H83.1626C83.1672 4.51062 83.1723 4.51176 83.1775 4.51176C83.1826 4.51176 83.1877 4.51062 83.1924 4.50843C83.196 4.5034 83.1979 4.49736 83.1979 4.49116C83.1979 4.48497 83.196 4.47893 83.1924 4.4739C83.1965 4.46276 83.1965 4.4505 83.1924 4.43936L82.9839 4.27656L83.0782 4.15816L83.3016 4.33083L83.2817 4.30616ZM83.8327 4.8587L83.6441 4.64657L83.5299 4.74523L83.6987 4.94257C83.7014 4.94879 83.7028 4.95551 83.7028 4.9623C83.7028 4.96909 83.7014 4.97581 83.6987 4.98204C83.701 4.9875 83.7022 4.99337 83.7022 4.9993C83.7022 5.00524 83.701 5.01111 83.6987 5.01657C83.6875 5.02073 83.6751 5.02073 83.6639 5.01657C83.6639 5.01657 83.6391 5.01657 83.6242 4.9919L83.4554 4.83404L83.3214 4.9475L83.515 5.16951C83.5196 5.18227 83.5196 5.19621 83.515 5.20897C83.52 5.22166 83.52 5.23575 83.515 5.24844C83.5022 5.25296 83.4882 5.25296 83.4753 5.24844C83.4753 5.24844 83.4753 5.24844 83.4356 5.22377L83.2122 4.96724C83.2122 4.96724 83.1824 4.92777 83.2122 4.91297C83.2129 4.90232 83.216 4.89196 83.2211 4.8826C83.2263 4.87323 83.2334 4.86508 83.242 4.8587L83.5944 4.55283L83.6342 4.52816H83.6689L83.7036 4.55283L83.9221 4.80443C83.9266 4.8172 83.9266 4.83113 83.9221 4.8439C83.9244 4.84937 83.9256 4.85524 83.9256 4.86117C83.9256 4.8671 83.9244 4.87297 83.9221 4.87844C83.9108 4.8822 83.8986 4.8822 83.8873 4.87844C83.8811 4.88115 83.8743 4.88255 83.8675 4.88255C83.8606 4.88255 83.8539 4.88115 83.8476 4.87844L83.8327 4.8587ZM84.0213 5.58885L84.2944 5.46551C84.3136 5.45831 84.3347 5.45831 84.3539 5.46551C84.3619 5.46848 84.3691 5.47309 84.3751 5.47905C84.3811 5.48501 84.3857 5.49216 84.3887 5.50004C84.3923 5.50778 84.3941 5.5162 84.3941 5.52471C84.3941 5.53322 84.3923 5.54164 84.3887 5.54938C84.3844 5.55867 84.3782 5.56697 84.3705 5.57376C84.3628 5.58056 84.3538 5.58569 84.344 5.58885L84.066 5.71711L83.9916 5.76151C83.9826 5.76865 83.9753 5.77764 83.9701 5.78786C83.965 5.79808 83.9621 5.80929 83.9618 5.82071C83.9527 5.84794 83.9527 5.87736 83.9618 5.90458C83.9678 5.92302 83.9782 5.93978 83.992 5.95349C84.0058 5.96721 84.0227 5.97749 84.0412 5.98352C84.0798 5.99667 84.1217 5.99667 84.1603 5.98352L84.4433 5.85525C84.4526 5.85086 84.4628 5.84858 84.4731 5.84858C84.4834 5.84858 84.4936 5.85086 84.5029 5.85525C84.5112 5.85751 84.5187 5.86189 84.5248 5.86794C84.5309 5.874 84.5353 5.88152 84.5376 5.88978C84.5415 5.89742 84.5436 5.90587 84.5436 5.91445C84.5436 5.92302 84.5415 5.93148 84.5376 5.93912C84.5263 5.95583 84.511 5.96941 84.4929 5.97858L84.2199 6.10192C84.182 6.12003 84.142 6.1333 84.1008 6.14139C84.0684 6.15098 84.0339 6.15098 84.0015 6.14139C83.972 6.13077 83.9461 6.11193 83.927 6.08712C83.9027 6.06076 83.8826 6.03081 83.8675 5.99832C83.8504 5.96065 83.8387 5.9208 83.8327 5.87992C83.8228 5.84944 83.8228 5.81666 83.8327 5.78618C83.8425 5.75502 83.8616 5.72752 83.8873 5.70725C83.9179 5.67981 83.9532 5.65809 83.9916 5.64311L84.0213 5.58885ZM84.6667 6.42259L84.3639 6.73833L84.7262 6.65446C84.7349 6.6508 84.7442 6.64891 84.7535 6.64891C84.7629 6.64891 84.7722 6.6508 84.7809 6.65446C84.7885 6.65701 84.7953 6.66157 84.8005 6.66765C84.8058 6.67373 84.8093 6.6811 84.8106 6.68899C84.8152 6.70344 84.8152 6.71894 84.8106 6.73339C84.805 6.74158 84.7976 6.74847 84.7891 6.75358C84.7805 6.75868 84.7709 6.7619 84.761 6.76299L84.2646 6.87153C84.21 6.87153 84.1802 6.87153 84.1703 6.82713C84.1679 6.8174 84.1679 6.80726 84.1703 6.79753C84.1703 6.79753 84.1703 6.79753 84.1703 6.76793C84.1688 6.75811 84.1688 6.74814 84.1703 6.73833C84.1703 6.73833 84.1703 6.73833 84.1951 6.73833L84.4929 6.42752L84.1355 6.51139C84.1269 6.51505 84.1176 6.51694 84.1082 6.51694C84.0988 6.51694 84.0896 6.51505 84.0809 6.51139C84.0809 6.51139 84.0809 6.51139 84.0809 6.47686C84.077 6.46922 84.075 6.46077 84.075 6.45219C84.075 6.44361 84.077 6.43516 84.0809 6.42752C84.0972 6.42312 84.1143 6.42312 84.1306 6.42752L84.5972 6.31405H84.6468H84.6816C84.684 6.3271 84.684 6.34048 84.6816 6.35352V6.38312C84.6837 6.39121 84.6837 6.3997 84.6816 6.40779V6.43739L84.6667 6.42259ZM84.2944 7.12807L84.7908 7.0886C84.8102 7.08284 84.8309 7.08284 84.8503 7.0886C84.8573 7.09393 84.8631 7.10062 84.8674 7.10825C84.8716 7.11589 84.8743 7.12431 84.8752 7.133C84.8801 7.1474 84.8801 7.163 84.8752 7.1774C84.8583 7.1914 84.8375 7.2 84.8156 7.20207L84.3192 7.24153C84.2999 7.24793 84.279 7.24793 84.2596 7.24153C84.2527 7.2362 84.2469 7.22951 84.2426 7.22188C84.2383 7.21424 84.2357 7.20582 84.2348 7.19713C84.229 7.18289 84.229 7.16697 84.2348 7.15273C84.2541 7.14634 84.275 7.14634 84.2944 7.15273V7.12807ZM84.7908 7.62141L84.3639 7.73487L84.7759 7.90261H84.8206C84.8232 7.90799 84.8246 7.91389 84.8246 7.91988C84.8246 7.92586 84.8232 7.93176 84.8206 7.93714C84.8227 7.94689 84.8227 7.95699 84.8206 7.96674C84.8124 7.96883 84.8039 7.96883 84.7957 7.96674H84.7511L84.3589 7.78914H84.3142L84.2497 7.79407V7.76447C84.2448 7.75008 84.2448 7.73447 84.2497 7.72007C84.2474 7.70536 84.2474 7.69038 84.2497 7.67567H84.2795H84.3192H84.3639L84.7759 7.55727H84.8404C84.8466 7.55423 84.8534 7.55265 84.8603 7.55265C84.8672 7.55265 84.874 7.55423 84.8801 7.55727C84.8859 7.57151 84.8859 7.58743 84.8801 7.60167C84.88 7.61052 84.8776 7.6192 84.8733 7.62694C84.8689 7.63468 84.8628 7.64124 84.8553 7.64607H84.7908V7.62141ZM84.5773 8.71662L84.6518 8.44528L84.5078 8.40088L84.4334 8.65249C84.437 8.6654 84.437 8.67904 84.4334 8.69195C84.4206 8.69691 84.4064 8.69691 84.3936 8.69195L84.3639 8.66729C84.3589 8.65289 84.3589 8.63728 84.3639 8.62289L84.4334 8.37128L84.2497 8.33675L84.1703 8.61795C84.1662 8.63329 84.1575 8.64704 84.1454 8.65742H84.1057C84.0994 8.6555 84.0934 8.65233 84.0883 8.6481C84.0832 8.64386 84.079 8.63864 84.076 8.63275C84.072 8.62511 84.07 8.61666 84.07 8.60809C84.07 8.59951 84.072 8.59106 84.076 8.58342L84.1703 8.25781C84.1716 8.24675 84.1754 8.23613 84.1814 8.22673C84.1874 8.21734 84.1955 8.20941 84.205 8.20355C84.2241 8.19587 84.2455 8.19587 84.2646 8.20355L84.7163 8.32688C84.7295 8.32506 84.7429 8.32506 84.756 8.32688C84.7575 8.3367 84.7575 8.34667 84.756 8.35648C84.7584 8.37119 84.7584 8.38618 84.756 8.40088L84.6667 8.72155C84.6712 8.73432 84.6712 8.74825 84.6667 8.76102C84.6539 8.76597 84.6397 8.76597 84.627 8.76102C84.627 8.76102 84.6021 8.76102 84.5972 8.73635C84.5897 8.73264 84.583 8.72763 84.5773 8.72155V8.71662Z" fill="white"/>
<path fill-rule="evenodd" clip-rule="evenodd" d="M84.1504 9.10856V9.0691L83.9717 8.98029C83.9521 8.97104 83.9363 8.95536 83.927 8.93589C83.9234 8.92815 83.9216 8.91974 83.9216 8.91123C83.9216 8.90271 83.9234 8.8943 83.927 8.88656C83.9296 8.87897 83.9342 8.87221 83.9403 8.867C83.9464 8.86179 83.9538 8.85832 83.9618 8.85696C83.9809 8.84976 84.0021 8.84976 84.0213 8.85696L84.4482 9.0691C84.4678 9.07835 84.4836 9.09403 84.4929 9.1135C84.4973 9.12275 84.4996 9.13286 84.4996 9.1431C84.4996 9.15334 84.4973 9.16345 84.4929 9.1727L84.4036 9.35523C84.3926 9.37791 84.3793 9.39941 84.3638 9.41937L84.3291 9.46377L84.2745 9.49337H84.2497H84.1851C84.1493 9.47596 84.121 9.44614 84.1057 9.4095C84.0906 9.36637 84.0906 9.31943 84.1057 9.2763C84.0829 9.29169 84.0578 9.30335 84.0312 9.31083H83.9419C83.9138 9.31321 83.8856 9.31321 83.8575 9.31083H83.8128C83.8101 9.30116 83.8101 9.29091 83.8128 9.28123C83.8107 9.27148 83.8107 9.26138 83.8128 9.25163C83.8184 9.24112 83.8271 9.23252 83.8376 9.22696H83.8724H83.922H84.0213H84.1057C84.124 9.22293 84.1411 9.21445 84.1553 9.2023C84.1693 9.18948 84.181 9.17449 84.1901 9.1579L84.1504 9.10856ZM84.3489 9.2911L84.4036 9.1875L84.2497 9.10856L84.2 9.20723C84.1875 9.23079 84.1775 9.2556 84.1702 9.28123C84.1666 9.28981 84.1647 9.29904 84.1647 9.30837C84.1647 9.31769 84.1666 9.32692 84.1702 9.3355C84.1702 9.3355 84.1702 9.36017 84.21 9.37003C84.2169 9.3735 84.2245 9.37531 84.2323 9.37531C84.24 9.37531 84.2477 9.3735 84.2546 9.37003C84.269 9.37579 84.285 9.37579 84.2993 9.37003C84.3164 9.34852 84.3314 9.32539 84.344 9.30097L84.3489 9.2911ZM83.5051 9.95711C83.4757 9.93608 83.4533 9.9069 83.4405 9.87324C83.4306 9.83774 83.4306 9.80021 83.4405 9.76471C83.45 9.72089 83.4705 9.68016 83.5001 9.6463C83.5305 9.60369 83.5716 9.56969 83.6192 9.54764C83.6499 9.53815 83.6828 9.53815 83.7135 9.54764C83.7437 9.55063 83.7726 9.56079 83.7979 9.57724C83.8021 9.58837 83.8021 9.60063 83.7979 9.61177C83.8025 9.62622 83.8025 9.64172 83.7979 9.65617C83.7924 9.65848 83.7865 9.65967 83.7806 9.65967C83.7746 9.65967 83.7687 9.65848 83.7632 9.65617C83.7487 9.66106 83.733 9.66106 83.7185 9.65617H83.6639H83.6143C83.5944 9.66462 83.5773 9.67826 83.5646 9.69564C83.5424 9.71997 83.5301 9.75159 83.5299 9.78444C83.5291 9.79746 83.5314 9.81048 83.5366 9.82247C83.5417 9.83446 83.5496 9.84509 83.5597 9.85351C83.5675 9.85676 83.576 9.85844 83.5845 9.85844C83.593 9.85844 83.6014 9.85676 83.6093 9.85351C83.6272 9.85833 83.646 9.85833 83.6639 9.85351C83.6869 9.83903 83.7085 9.82251 83.7284 9.80417L83.8277 9.74004C83.8552 9.72509 83.8858 9.71665 83.9171 9.71537C83.9496 9.71806 83.9806 9.73005 84.0064 9.7499C84.0316 9.77075 84.0504 9.79805 84.061 9.82884C84.071 9.86099 84.071 9.89536 84.061 9.92751C84.0386 10.0017 83.9913 10.0661 83.927 10.11C83.9041 10.1241 83.8789 10.1341 83.8525 10.1396H83.793C83.7743 10.1366 83.757 10.128 83.7433 10.115C83.7314 10.1066 83.7226 10.0944 83.7185 10.0804C83.7142 10.0659 83.7142 10.0505 83.7185 10.036C83.7267 10.034 83.7352 10.034 83.7433 10.036H83.8575C83.8816 10.0279 83.9025 10.0124 83.9171 9.99164C83.936 9.96918 83.9481 9.94178 83.9518 9.91271C83.9555 9.90413 83.9574 9.8949 83.9574 9.88557C83.9574 9.87625 83.9555 9.86702 83.9518 9.85844H83.922H83.8873H83.8525L83.8029 9.89791L83.7235 9.95711L83.649 9.99164H83.5795C83.552 9.98441 83.5265 9.9709 83.5051 9.95217V9.95711ZM83.2569 10.0459C83.2504 10.0374 83.2422 10.0303 83.2328 10.0252C83.2234 10.0201 83.213 10.017 83.2023 10.0163C83.2023 10.0163 83.1725 10.0163 83.1576 10.0163C83.1518 10.0305 83.1518 10.0465 83.1576 10.0607C83.1583 10.0714 83.1614 10.0817 83.1665 10.0911C83.1716 10.1004 83.1788 10.1086 83.1874 10.115L83.5249 10.4652C83.5313 10.4738 83.5395 10.4809 83.549 10.486C83.5584 10.4911 83.5688 10.4941 83.5795 10.4948H83.6242C83.63 10.4806 83.63 10.4647 83.6242 10.4504C83.6234 10.4298 83.6145 10.4104 83.5994 10.3962L83.2569 10.0459ZM82.9243 10.9043L83.0335 10.8254L82.7605 10.4603C82.7605 10.4603 82.7356 10.4159 82.7605 10.4011C82.761 10.393 82.7636 10.3852 82.7679 10.3783C82.7722 10.3714 82.7782 10.3657 82.7853 10.3616C82.7931 10.3581 82.8015 10.3563 82.8101 10.3563C82.8187 10.3563 82.8271 10.3581 82.8349 10.3616C82.8544 10.3685 82.8704 10.3827 82.8796 10.4011L83.1476 10.7662L83.2569 10.6823H83.3065C83.3177 10.6782 83.33 10.6782 83.3412 10.6823C83.3458 10.6968 83.3458 10.7123 83.3412 10.7267C83.3347 10.7421 83.3244 10.7556 83.3115 10.7662L82.9838 10.9981H82.9342C82.923 11.0022 82.9107 11.0022 82.8994 10.9981C82.8949 10.9853 82.8949 10.9714 82.8994 10.9586C82.9021 10.9499 82.9066 10.942 82.9126 10.9352C82.9186 10.9284 82.9259 10.9229 82.9342 10.9191L82.9243 10.9043ZM82.3236 10.7563L82.413 10.929L82.6612 11.0671L82.7058 11.1017H82.7307C82.7356 11.1161 82.7356 11.1317 82.7307 11.1461C82.7247 11.1592 82.7141 11.1697 82.7009 11.1757C82.6949 11.1791 82.688 11.1809 82.681 11.1809C82.6741 11.1809 82.6672 11.1791 82.6612 11.1757L82.5966 11.1461L82.408 11.0326V11.2497V11.2842C82.408 11.2842 82.408 11.2842 82.408 11.3138H82.3633C82.3536 11.3168 82.3432 11.3168 82.3335 11.3138C82.3311 11.3024 82.3311 11.2906 82.3335 11.2793C82.331 11.2613 82.331 11.243 82.3335 11.225L82.3633 10.9438L82.274 10.7711C82.2699 10.7618 82.2678 10.7517 82.2678 10.7415C82.2678 10.7313 82.2699 10.7213 82.274 10.7119C82.2759 10.703 82.2802 10.6946 82.2862 10.6877C82.2923 10.6808 82.3 10.6756 82.3087 10.6725C82.3164 10.6686 82.3249 10.6665 82.3335 10.6665C82.3422 10.6665 82.3507 10.6686 82.3584 10.6725C82.3628 10.6883 82.3617 10.7051 82.3554 10.7203C82.3491 10.7355 82.3379 10.7482 82.3236 10.7563Z" fill="white"/>
<path fill-rule="evenodd" clip-rule="evenodd" d="M81.301 11.1985L81.1819 11.2232H81.1372H81.028H80.899H80.4026H80.2735H80.1643H80.1196L80.0005 11.1985C79.9809 11.1948 79.9633 11.1843 79.9508 11.1689C79.9455 11.1546 79.9455 11.1389 79.9508 11.1245C79.9508 11.1245 79.9508 11.0949 79.9756 11.09C79.9842 11.086 79.9935 11.084 80.003 11.084C80.0124 11.084 80.0217 11.086 80.0303 11.09L80.1742 11.1196H80.3082H80.4522H80.5962H80.7699H80.9139H81.0578H81.1918L81.3358 11.09C81.3443 11.086 81.3537 11.084 81.3631 11.084C81.3725 11.084 81.3819 11.086 81.3904 11.09C81.3904 11.09 81.3904 11.09 81.3904 11.1245C81.3957 11.1389 81.3957 11.1546 81.3904 11.1689C81.382 11.1841 81.3681 11.1956 81.3515 11.2011C81.335 11.2066 81.317 11.2057 81.301 11.1985Z" fill="white"/>
<path fill-rule="evenodd" clip-rule="evenodd" d="M80.8586 11.4796H80.7098H80.5263H80.3775H80.2485L80.1146 11.455C80.1067 11.4582 80.0983 11.4599 80.0898 11.4599C80.0813 11.4599 80.0729 11.4582 80.065 11.455C80.0615 11.4481 80.0597 11.4405 80.0597 11.4328C80.0597 11.4251 80.0615 11.4174 80.065 11.4106C80.0651 11.4023 80.0674 11.3943 80.0718 11.3873C80.0762 11.3804 80.0824 11.3747 80.0898 11.3711C80.0898 11.3711 80.1196 11.3711 80.1444 11.3711H80.2882H80.4321H80.5759H80.7495H80.8934H81.0372H81.1811C81.1811 11.3711 81.2257 11.3711 81.2356 11.3711C81.243 11.3747 81.2493 11.3804 81.2536 11.3873C81.258 11.3943 81.2604 11.4023 81.2604 11.4106C81.2639 11.4174 81.2657 11.4251 81.2657 11.4328C81.2657 11.4405 81.2639 11.4481 81.2604 11.455C81.2526 11.4582 81.2441 11.4599 81.2356 11.4599C81.2271 11.4599 81.2187 11.4582 81.2108 11.455L81.0769 11.4796H80.9479H80.8586Z" fill="white"/>
<path fill-rule="evenodd" clip-rule="evenodd" d="M80.6901 11.6973H80.5265H80.3776H80.2388C80.2225 11.7017 80.2054 11.7017 80.1892 11.6973C80.186 11.6903 80.1844 11.6828 80.1844 11.6751C80.1844 11.6675 80.186 11.6599 80.1892 11.6529C80.1864 11.6467 80.185 11.64 80.185 11.6332C80.185 11.6264 80.1864 11.6197 80.1892 11.6134C80.1977 11.6095 80.207 11.6074 80.2164 11.6074C80.2259 11.6074 80.2352 11.6095 80.2437 11.6134H80.3925H80.5364H80.71H80.8538H81.0026C81.0112 11.6095 81.0205 11.6074 81.0299 11.6074C81.0393 11.6074 81.0487 11.6095 81.0572 11.6134C81.0599 11.6197 81.0613 11.6264 81.0613 11.6332C81.0613 11.64 81.0599 11.6467 81.0572 11.6529C81.0603 11.6599 81.062 11.6675 81.062 11.6751C81.062 11.6828 81.0603 11.6903 81.0572 11.6973C81.041 11.7017 81.0238 11.7017 81.0076 11.6973H80.8687H80.7199H80.6901Z" fill="white"/>
<path fill-rule="evenodd" clip-rule="evenodd" d="M76.6646 7.05473V7.1978C76.6682 7.20554 76.67 7.21396 76.67 7.22247C76.67 7.23098 76.6682 7.2394 76.6646 7.24714C76.6586 7.2506 76.6517 7.25242 76.6448 7.25242C76.6378 7.25242 76.6309 7.2506 76.6249 7.24714C76.6187 7.25018 76.612 7.25176 76.6051 7.25176C76.5982 7.25176 76.5914 7.25018 76.5852 7.24714C76.5819 7.23086 76.5819 7.21408 76.5852 7.1978V7.05473C76.5808 7.03858 76.5808 7.02155 76.5852 7.0054C76.5922 7.00193 76.5998 7.00012 76.6076 7.00012C76.6153 7.00012 76.6229 7.00193 76.6299 7.0054C76.6351 7.00237 76.6411 7.00077 76.6472 7.00077C76.6533 7.00077 76.6593 7.00237 76.6646 7.0054C76.6685 7.01304 76.6706 7.02149 76.6706 7.03007C76.6706 7.03864 76.6685 7.04709 76.6646 7.05473Z" fill="white"/>
</g>
<defs>
<clipPath id="clip0_290_365">
<rect width="162" height="70" fill="white"/>
</clipPath>
</defs>
</svg>
